<?xml version="1.0" encoding="UTF-8"?>
<svg version="1.1" xmlns="http://www.w3.org/2000/svg" width="674" height="674">
<path d="M0 0 C1.72769623 0.00323273 1.72769623 0.00323273 3.49029541 0.00653076 C20.00402768 0.05615083 36.14517212 0.38782846 52.4375 3.3125 C53.58057617 3.50585938 54.72365234 3.69921875 55.90136719 3.8984375 C84.96202326 8.88950698 112.45147513 17.49667564 139.4375 29.3125 C140.25492676 29.66666992 141.07235352 30.02083984 141.91455078 30.38574219 C184.28078033 48.90196775 224.3727801 79.16808282 254.4375 114.3125 C255.22769531 115.21355469 256.01789062 116.11460938 256.83203125 117.04296875 C297.26252883 163.49342071 322.88341592 220.79938093 333.6875 281.1875 C333.83872314 282.02893555 333.98994629 282.87037109 334.14575195 283.73730469 C337.12543196 301.43031146 337.8102986 318.95664177 337.75 336.875 C337.74784485 338.02679749 337.7456897 339.17859497 337.74346924 340.36529541 C337.69384917 356.87902768 337.36217154 373.02017212 334.4375 389.3125 C334.24414062 390.45557617 334.05078125 391.59865234 333.8515625 392.77636719 C328.86049302 421.83702326 320.25332436 449.32647513 308.4375 476.3125 C308.08333008 477.12992676 307.72916016 477.94735352 307.36425781 478.78955078 C288.84803225 521.15578033 258.58191718 561.2477801 223.4375 591.3125 C222.08591797 592.49779297 222.08591797 592.49779297 220.70703125 593.70703125 C174.25657929 634.13752883 116.95061907 659.75841592 56.5625 670.5625 C55.72106445 670.71372314 54.87962891 670.86494629 54.01269531 671.02075195 C36.31968854 674.00043196 18.79335823 674.6852986 0.875 674.625 C-0.27679749 674.62284485 -1.42859497 674.6206897 -2.61529541 674.61846924 C-19.12902768 674.56884917 -35.27017212 674.23717154 -51.5625 671.3125 C-52.70557617 671.11914062 -53.84865234 670.92578125 -55.02636719 670.7265625 C-84.08702326 665.73549302 -111.57647513 657.12832436 -138.5625 645.3125 C-139.37992676 644.95833008 -140.19735352 644.60416016 -141.03955078 644.23925781 C-183.40578033 625.72303225 -223.4977801 595.45691718 -253.5625 560.3125 C-254.35269531 559.41144531 -255.14289063 558.51039063 -255.95703125 557.58203125 C-296.38752883 511.13157929 -322.00841592 453.82561907 -332.8125 393.4375 C-333.03933472 392.17534668 -333.03933472 392.17534668 -333.27075195 390.88769531 C-336.25043196 373.19468854 -336.9352986 355.66835823 -336.875 337.75 C-336.87284485 336.59820251 -336.8706897 335.44640503 -336.86846924 334.25970459 C-336.81884917 317.74597232 -336.48717154 301.60482788 -333.5625 285.3125 C-333.36914062 284.16942383 -333.17578125 283.02634766 -332.9765625 281.84863281 C-327.98549302 252.78797674 -319.37832436 225.29852487 -307.5625 198.3125 C-307.20833008 197.49507324 -306.85416016 196.67764648 -306.48925781 195.83544922 C-287.97303225 153.46921967 -257.70691718 113.3772199 -222.5625 83.3125 C-221.66144531 82.52230469 -220.76039063 81.73210937 -219.83203125 80.91796875 C-173.38157929 40.48747117 -116.07561907 14.86658408 -55.6875 4.0625 C-54.42534668 3.83566528 -54.42534668 3.83566528 -53.13769531 3.60424805 C-35.44468854 0.62456804 -17.91835823 -0.0602986 0 0 Z " fill="#282828" transform="translate(336.5625,-0.31250000000000006)"/>
<path d="M0 0 C2.45538325 0.00056505 4.91076684 0.00024573 7.3661499 -0.00088501 C12.62393045 -0.00133806 17.88166605 0.00427469 23.13943291 0.01559067 C30.74099907 0.03194029 38.34254132 0.03706328 45.94412316 0.03956665 C58.28128461 0.04392902 70.6184194 0.05719828 82.95556641 0.07617188 C94.93017444 0.09456861 106.90477519 0.10870648 118.87939453 0.1171875 C119.61921558 0.11771295 120.35903662 0.11823839 121.12127649 0.11877976 C124.83325067 0.1213901 128.5452249 0.12391745 132.25719917 0.12640357 C162.98471819 0.14709061 193.71220256 0.18283185 224.43969727 0.22705078 C224.43969727 6.82705078 224.43969727 13.42705078 224.43969727 20.22705078 C221.40664398 20.23291702 218.3735907 20.23878326 215.24862671 20.24482727 C187.34779805 20.30016143 159.44704591 20.37021265 131.54629602 20.45603706 C127.87941578 20.4673034 124.21253517 20.47844215 120.5456543 20.48950195 C119.45077369 20.49280748 119.45077369 20.49280748 118.33377428 20.49617978 C106.56016997 20.53142185 94.7865657 20.55635953 83.01292841 20.5773978 C70.90582755 20.59926475 58.79879433 20.63241691 46.69175112 20.67575234 C39.90247767 20.69973759 33.11327092 20.71874542 26.32395554 20.72466469 C19.91682402 20.7307653 13.50988225 20.75094234 7.10282135 20.78132629 C4.76741739 20.79002748 2.43198855 20.79384582 0.09656906 20.79205894 C-18.69588588 20.7822316 -37.30634489 21.97368383 -55.49780273 27.03955078 C-56.92443237 27.42421509 -56.92443237 27.42421509 -58.37988281 27.81665039 C-66.39309386 30.04265542 -73.94025322 32.90805547 -81.56030273 36.22705078 C-82.57866211 36.62537109 -83.59702148 37.02369141 -84.64624023 37.43408203 C-104.34520388 45.16372787 -122.01073543 57.98557967 -137.05004883 72.74755859 C-138.576916 74.24332565 -140.12365755 75.71616455 -141.67358398 77.18798828 C-153.41714904 88.46974858 -162.27490064 101.26108432 -170.56030273 115.22705078 C-171.1494043 116.21833984 -171.73850586 117.20962891 -172.34545898 118.23095703 C-176.18134983 124.97074479 -178.91630209 131.9503343 -181.56030273 139.22705078 C-182.146171 140.79397045 -182.7335006 142.36034424 -183.32202148 143.92626953 C-184.84979681 148.00140751 -186.34635557 152.08682934 -187.82055664 156.18164062 C-188.40262673 157.79107402 -189.00011168 159.39493298 -189.60327148 160.99658203 C-192.28062301 168.75682427 -192.63128147 177.05732485 -193.31079102 185.1875 C-193.56030273 187.22705078 -193.56030273 187.22705078 -194.06306458 189.03353882 C-194.62795439 191.5254887 -194.72135481 193.8077704 -194.765625 196.36279297 C-194.78557022 197.38354919 -194.80551544 198.40430542 -194.82606506 199.45599365 C-194.8511338 201.09837006 -194.8511338 201.09837006 -194.87670898 202.77392578 C-194.89749008 203.90026428 -194.91827118 205.02660278 -194.93968201 206.18707275 C-195.00504606 209.78367027 -195.06400159 213.38034056 -195.12280273 216.97705078 C-195.16600044 219.41586038 -195.20961513 221.85466263 -195.25366211 224.29345703 C-195.36149837 230.27124813 -195.46067013 236.24909478 -195.56030273 242.22705078 C-184.34030273 242.22705078 -173.12030273 242.22705078 -161.56030273 242.22705078 C-161.58350586 238.27478516 -161.60670898 234.32251953 -161.63061523 230.25048828 C-161.64351629 227.05911381 -161.65434798 223.86774691 -161.6638031 220.67636108 C-161.6742764 217.32957538 -161.68934252 213.98297268 -161.71118164 210.63623047 C-161.73570751 206.77845584 -161.74684891 202.92082723 -161.75561523 199.06298828 C-161.76593781 197.88844086 -161.77626038 196.71389343 -161.78689575 195.50375366 C-161.78916449 178.38067306 -158.10114743 162.12741467 -152.49780273 146.03955078 C-152.25255859 145.3327417 -152.00731445 144.62593262 -151.75463867 143.89770508 C-150.36690144 140.04334388 -148.69680915 136.70650409 -146.56030273 133.22705078 C-146.07948242 132.09783203 -145.59866211 130.96861328 -145.10327148 129.80517578 C-138.69474167 114.94387626 -127.97134205 102.19447076 -116.87915039 90.60888672 C-115.81669815 89.49569166 -114.76990804 88.36755975 -113.72827148 87.23486328 C-102.52601647 75.38032506 -87.41114698 64.69484555 -72.02905273 59.17626953 C-69.21351612 58.09371352 -66.62033335 56.72636251 -63.93530273 55.35205078 C-57.69945578 52.44100374 -51.35127223 50.65575665 -44.68530273 48.97705078 C-43.23389893 48.60797607 -43.23389893 48.60797607 -41.75317383 48.23144531 C-25.65639767 44.35118768 -10.11788243 43.94502977 6.35742188 44 C8.74384049 44.00056509 11.13025945 44.00024565 13.51667786 43.99911499 C19.95363178 43.99854429 26.39051022 44.01025255 32.8274467 44.02426291 C38.88549248 44.03651145 44.94354473 44.03751374 51.00160081 44.03956665 C62.98936256 44.04392842 74.97709687 44.05719602 86.96484375 44.07617188 C98.59993351 44.09457018 110.23501579 44.10870727 121.87011719 44.1171875 C122.9484853 44.11797567 122.9484853 44.11797567 124.04863863 44.11877976 C127.65572431 44.12139011 131.26281005 44.12391746 134.86989582 44.12640357 C164.72651551 44.14708873 194.58310316 44.18242272 224.43969727 44.22705078 C224.50989257 54.66890713 224.56285538 65.11070534 224.59513378 75.55275154 C224.61064301 80.40390615 224.63160361 85.25489676 224.66601562 90.10595703 C224.95694192 132.23641651 224.95694192 132.23641651 221.43969727 149.22705078 C221.21516624 150.31335281 221.21516624 150.31335281 220.98609924 151.42160034 C219.99596288 156.08490441 218.79830661 160.6595859 217.43969727 165.22705078 C217.10010986 166.39107422 217.10010986 166.39107422 216.75366211 167.57861328 C208.35893033 195.86027072 194.42226394 219.84928229 175.43969727 242.22705078 C174.7474707 243.06236328 174.05524414 243.89767578 173.34204102 244.75830078 C169.41660375 249.40802147 165.0861074 253.31223622 160.43969727 257.22705078 C159.51543945 258.05076172 158.59118164 258.87447266 157.63891602 259.72314453 C151.49543036 265.15254401 145.13764495 269.95484886 138.25219727 274.41455078 C137.5091333 274.89633789 136.76606934 275.378125 136.00048828 275.87451172 C130.70949394 279.22705078 130.70949394 279.22705078 128.43969727 279.22705078 C128.10969727 280.21705078 127.77969727 281.20705078 127.43969727 282.22705078 C125.57641602 283.14892578 125.57641602 283.14892578 123.12719727 283.97705078 C118.92447418 285.5276281 115.308526 287.42922944 111.50219727 289.78955078 C106.89573339 292.54290673 102.78281238 294.26550879 97.57250977 295.47314453 C95.06639915 296.07623599 92.6425439 296.75428934 90.18188477 297.51220703 C89.05496216 297.85807861 89.05496216 297.85807861 87.90527344 298.2109375 C86.41951643 298.66983276 84.93521633 299.13347997 83.45263672 299.60253906 C79.32097439 300.85730098 75.81099044 301.48095635 71.43969727 301.22705078 C71.43969727 301.88705078 71.43969727 302.54705078 71.43969727 303.22705078 C55.08569775 308.53375675 37.7899869 307.3666669 20.79956055 307.34057617 C18.21624757 307.34029373 15.63293451 307.34045314 13.04962158 307.34101868 C7.51245766 307.34154009 1.97530562 307.33843352 -3.56185532 307.33278084 C-11.56741355 307.32461363 -19.57296611 307.3220453 -27.57852806 307.32079285 C-40.57066584 307.31861049 -53.56279729 307.31197263 -66.55493164 307.30249023 C-79.16691049 307.29329494 -91.77888761 307.28622449 -104.39086914 307.28198242 C-105.16978385 307.2817197 -105.94869857 307.28145697 -106.75121675 307.28118629 C-110.65925453 307.27988114 -114.56729232 307.27861746 -118.47533011 307.27737439 C-150.83699244 307.26702721 -183.19864625 307.24915375 -215.56030273 307.22705078 C-215.56030273 300.29705078 -215.56030273 293.36705078 -215.56030273 286.22705078 C-212.24639496 286.21896393 -208.93248718 286.21087708 -205.51815796 286.20254517 C-175.08958933 286.12738121 -144.66106275 286.04246818 -114.23255118 285.94699917 C-110.23991391 285.93448114 -106.24727637 285.92204824 -102.25463867 285.90966797 C-101.06240597 285.90596898 -101.06240597 285.90596898 -99.84608777 285.90219526 C-86.99686917 285.86253233 -74.14764185 285.82975646 -61.29839794 285.79955097 C-48.10201942 285.76837519 -34.90567774 285.72973985 -21.70934069 285.68426073 C-13.57444658 285.65645775 -5.43957925 285.63438946 2.69534944 285.61978827 C8.28293414 285.60920039 13.87046683 285.59133014 19.45801224 285.56788374 C22.67588894 285.55459129 25.89368017 285.54544943 29.11158562 285.54283714 C51.44609667 285.77116987 51.44609667 285.77116987 73.06469727 280.78955078 C77.62632371 279.17121443 82.09856217 277.75381041 86.81469727 276.66455078 C92.05568794 275.40476418 96.59958142 273.56238826 101.43969727 271.22705078 C102.70026596 270.65549709 103.96209751 270.08672433 105.22485352 269.52001953 C106.58828655 268.90186462 107.95156709 268.28337325 109.31469727 267.66455078 C109.96994385 267.37161133 110.62519043 267.07867187 111.30029297 266.77685547 C114.6027519 265.25653313 116.91569933 263.78528197 119.43969727 261.22705078 C120.66321838 260.36216829 121.91165218 259.53185855 123.17797852 258.73095703 C123.90895752 258.26085205 124.63993652 257.79074707 125.39306641 257.30639648 C126.17157959 256.8058374 126.95009277 256.30527832 127.75219727 255.78955078 C136.25785827 250.21675853 143.97363209 244.11880325 151.43969727 237.22705078 C152.68299805 236.09009766 152.68299805 236.09009766 153.95141602 234.93017578 C163.632943 225.67105399 171.34608029 214.54372831 178.27905273 203.13427734 C179.06877168 201.83657343 179.86765714 200.54441332 180.67456055 199.25732422 C196.12205767 174.44860818 202.40651847 145.05561413 202.75610352 116.12939453 C202.77671597 114.68493616 202.79771343 113.24048323 202.81907654 111.79603577 C202.87385472 108.02324886 202.9234561 104.2504116 202.97192383 100.47753906 C203.02246535 96.61600344 203.07797969 92.75453953 203.13305664 88.89306641 C203.24009558 81.33778731 203.34119682 73.78244691 203.43969727 66.22705078 C196.17969727 66.22705078 188.91969727 66.22705078 181.43969727 66.22705078 C181.45129883 69.81322266 181.46290039 73.39939453 181.47485352 77.09423828 C181.48264554 80.55598868 181.48872148 84.01773812 181.49462891 87.47949219 C181.49966701 89.89095495 181.50649761 92.30241464 181.51513672 94.71386719 C181.52722514 98.17399857 181.53293071 101.63408968 181.53735352 105.09423828 C181.5425148 106.17760468 181.54767609 107.26097107 181.55299377 108.37716675 C181.55310707 109.87849655 181.55310707 109.87849655 181.55322266 111.41015625 C181.55544327 112.29395966 181.55766388 113.17776306 181.55995178 114.08834839 C181.43969727 116.22705078 181.43969727 116.22705078 180.43969727 118.22705078 C180.16457813 120.2650487 179.8931558 122.30362589 179.64208984 124.34472656 C175.59230584 156.13296402 162.3651135 186.12385013 140.73657227 209.79492188 C139.00335658 211.70889838 137.35185753 213.68884665 135.68969727 215.66455078 C126.23992606 226.33219227 113.13300427 235.77549392 100.43969727 242.22705078 C99.77969727 242.22705078 99.11969727 242.22705078 98.43969727 242.22705078 C98.43969727 242.88705078 98.43969727 243.54705078 98.43969727 244.22705078 C97.19508944 244.90373077 95.9437283 245.56799797 94.68969727 246.22705078 C93.99360352 246.59830078 93.29750977 246.96955078 92.58032227 247.35205078 C90.43969727 248.22705078 90.43969727 248.22705078 86.43969727 248.22705078 C86.10969727 249.21705078 85.77969727 250.20705078 85.43969727 251.22705078 C79.23871023 255.13137595 71.61884922 256.09371971 64.50610352 257.18798828 C63.8087207 257.29626953 63.11133789 257.40455078 62.39282227 257.51611328 C61.77568359 257.60586426 61.15854492 257.69561523 60.52270508 257.78808594 C58.31924498 258.20040222 58.31924498 258.20040222 55.82898426 259.1850605 C51.94905455 260.37789223 48.14885636 260.92747137 44.12809753 261.33786011 C43.30452135 261.42216872 42.48094517 261.50647733 41.63241214 261.59334075 C30.58107388 262.61487131 19.51311533 262.49026542 8.42529297 262.45410156 C5.96931971 262.45353612 3.51334611 262.4538566 1.05737305 262.45498657 C-4.18942383 262.4554386 -9.43617549 262.44985205 -14.6829586 262.43851089 C-22.26854075 262.42212517 -29.85409896 262.41703467 -37.43969689 262.41453491 C-49.75245492 262.41017809 -62.06518616 262.39692418 -74.37792969 262.37792969 C-86.32519397 262.35951839 -98.27245092 262.34538772 -110.21972656 262.33691406 C-110.95849672 262.33638862 -111.69726687 262.33586317 -112.45842399 262.3353218 C-116.16531564 262.33271137 -119.87220733 262.33018404 -123.57909906 262.32769799 C-154.23951945 262.30702829 -184.89990734 262.27170762 -215.56030273 262.22705078 C-215.60721098 253.85403498 -215.64246233 245.48107656 -215.66392708 237.1079607 C-215.67424325 233.21751487 -215.68817138 229.32716068 -215.71118164 225.43676758 C-215.96206649 181.85624679 -215.96206649 181.85624679 -211.31030273 163.03955078 C-211.09704346 162.14083252 -210.88378418 161.24211426 -210.6640625 160.31616211 C-207.91503214 149.08938742 -204.52144149 137.85579151 -199.56811523 127.38720703 C-197.78229529 123.55946117 -196.22153597 119.63493198 -194.61108398 115.73095703 C-193.97274577 114.20986115 -193.2980301 112.70250552 -192.56030273 111.22705078 C-191.90030273 111.22705078 -191.24030273 111.22705078 -190.56030273 111.22705078 C-190.48682617 110.55673828 -190.41334961 109.88642578 -190.33764648 109.19580078 C-189.29346655 105.20797793 -187.33441298 102.17691403 -185.12280273 98.72705078 C-184.67686768 98.02435059 -184.23093262 97.32165039 -183.77148438 96.59765625 C-177.49173862 86.84679949 -170.40728708 77.91899231 -162.53686523 69.39501953 C-160.82073803 67.5127061 -159.20978185 65.59273512 -157.62280273 63.60205078 C-156.94217773 62.81830078 -156.26155273 62.03455078 -155.56030273 61.22705078 C-154.90030273 61.22705078 -154.24030273 61.22705078 -153.56030273 61.22705078 C-153.23030273 60.23705078 -152.90030273 59.24705078 -152.56030273 58.22705078 C-150.09472621 55.68041421 -147.27542235 53.5025796 -144.56030273 51.22705078 C-143.74819336 50.50517578 -142.93608398 49.78330078 -142.09936523 49.03955078 C-129.61821091 38.16771435 -114.84026454 27.17507518 -99.25561523 21.38720703 C-96.44468093 20.25296177 -96.44468093 20.25296177 -93.59155273 18.41064453 C-88.06432743 15.19177838 -81.95999131 13.29962493 -75.93530273 11.22705078 C-74.97488068 10.8955603 -74.97488068 10.8955603 -73.99505615 10.55737305 C-63.60723986 6.99635344 -53.22487219 4.15510965 -42.33014774 2.62765312 C-40.43300198 2.35326916 -38.53963559 2.05177462 -36.65040493 1.72734261 C-24.45567393 -0.19421096 -12.3189245 -0.0399188 0 0 Z " fill="#CACACA" transform="translate(321.560302734375,85.77294921875)"/>
<path d="M0 0 C2.45538325 0.00056505 4.91076684 0.00024573 7.3661499 -0.00088501 C12.62393045 -0.00133806 17.88166605 0.00427469 23.13943291 0.01559067 C30.74099907 0.03194029 38.34254132 0.03706328 45.94412316 0.03956665 C58.28128461 0.04392902 70.6184194 0.05719828 82.95556641 0.07617188 C94.93017444 0.09456861 106.90477519 0.10870648 118.87939453 0.1171875 C119.61921558 0.11771295 120.35903662 0.11823839 121.12127649 0.11877976 C124.83325067 0.1213901 128.5452249 0.12391745 132.25719917 0.12640357 C162.98471819 0.14709061 193.71220256 0.18283185 224.43969727 0.22705078 C224.43969727 6.82705078 224.43969727 13.42705078 224.43969727 20.22705078 C221.40664398 20.23291702 218.3735907 20.23878326 215.24862671 20.24482727 C187.34779805 20.30016143 159.44704591 20.37021265 131.54629602 20.45603706 C127.87941578 20.4673034 124.21253517 20.47844215 120.5456543 20.48950195 C119.45077369 20.49280748 119.45077369 20.49280748 118.33377428 20.49617978 C106.56016997 20.53142185 94.7865657 20.55635953 83.01292841 20.5773978 C70.90582755 20.59926475 58.79879433 20.63241691 46.69175112 20.67575234 C39.90247767 20.69973759 33.11327092 20.71874542 26.32395554 20.72466469 C19.91682402 20.7307653 13.50988225 20.75094234 7.10282135 20.78132629 C4.76741739 20.79002748 2.43198855 20.79384582 0.09656906 20.79205894 C-18.69588588 20.7822316 -37.30634489 21.97368383 -55.49780273 27.03955078 C-56.92443237 27.42421509 -56.92443237 27.42421509 -58.37988281 27.81665039 C-66.39309386 30.04265542 -73.94025322 32.90805547 -81.56030273 36.22705078 C-82.57866211 36.62537109 -83.59702148 37.02369141 -84.64624023 37.43408203 C-104.34520388 45.16372787 -122.01073543 57.98557967 -137.05004883 72.74755859 C-138.576916 74.24332565 -140.12365755 75.71616455 -141.67358398 77.18798828 C-153.41714904 88.46974858 -162.27490064 101.26108432 -170.56030273 115.22705078 C-171.1494043 116.21833984 -171.73850586 117.20962891 -172.34545898 118.23095703 C-176.18134983 124.97074479 -178.91630209 131.9503343 -181.56030273 139.22705078 C-182.146171 140.79397045 -182.7335006 142.36034424 -183.32202148 143.92626953 C-184.84979681 148.00140751 -186.34635557 152.08682934 -187.82055664 156.18164062 C-188.40262673 157.79107402 -189.00011168 159.39493298 -189.60327148 160.99658203 C-192.28062301 168.75682427 -192.63128147 177.05732485 -193.31079102 185.1875 C-193.56030273 187.22705078 -193.56030273 187.22705078 -194.06306458 189.03353882 C-194.62795439 191.5254887 -194.72135481 193.8077704 -194.765625 196.36279297 C-194.78557022 197.38354919 -194.80551544 198.40430542 -194.82606506 199.45599365 C-194.8511338 201.09837006 -194.8511338 201.09837006 -194.87670898 202.77392578 C-194.89749008 203.90026428 -194.91827118 205.02660278 -194.93968201 206.18707275 C-195.00504606 209.78367027 -195.06400159 213.38034056 -195.12280273 216.97705078 C-195.16600044 219.41586038 -195.20961513 221.85466263 -195.25366211 224.29345703 C-195.36149837 230.27124813 -195.46067013 236.24909478 -195.56030273 242.22705078 C-184.34030273 242.22705078 -173.12030273 242.22705078 -161.56030273 242.22705078 C-161.58350586 238.27478516 -161.60670898 234.32251953 -161.63061523 230.25048828 C-161.64351629 227.05911381 -161.65434798 223.86774691 -161.6638031 220.67636108 C-161.6742764 217.32957538 -161.68934252 213.98297268 -161.71118164 210.63623047 C-161.73570751 206.77845584 -161.74684891 202.92082723 -161.75561523 199.06298828 C-161.76593781 197.88844086 -161.77626038 196.71389343 -161.78689575 195.50375366 C-161.78916449 178.38067306 -158.10114743 162.12741467 -152.49780273 146.03955078 C-152.25255859 145.3327417 -152.00731445 144.62593262 -151.75463867 143.89770508 C-150.36690144 140.04334388 -148.69680915 136.70650409 -146.56030273 133.22705078 C-146.07948242 132.09783203 -145.59866211 130.96861328 -145.10327148 129.80517578 C-138.69474167 114.94387626 -127.97134205 102.19447076 -116.87915039 90.60888672 C-115.81669815 89.49569166 -114.76990804 88.36755975 -113.72827148 87.23486328 C-102.52601647 75.38032506 -87.41114698 64.69484555 -72.02905273 59.17626953 C-69.21351612 58.09371352 -66.62033335 56.72636251 -63.93530273 55.35205078 C-54.04944861 50.69360873 -43.18416998 48.58465118 -32.56030273 46.22705078 C-31.89134633 46.05279351 -31.22238993 45.87853624 -30.53316212 45.69899845 C-26.16478542 45.00550948 -21.8463648 45.09342513 -17.43009949 45.10679626 C-16.40085572 45.10594184 -15.37161195 45.10508741 -14.31117898 45.1042071 C-10.85798841 45.10255831 -7.40484627 45.10806388 -3.95166016 45.11352539 C-1.4780477 45.11380742 0.99556484 45.11364922 3.46917725 45.11308289 C8.79696591 45.11285507 14.12473946 45.11569387 19.45252419 45.12132072 C27.15558645 45.1294509 34.8586428 45.1320525 42.56170889 45.13330872 C55.05969731 45.13549685 67.55767919 45.14215047 80.05566406 45.15161133 C92.19563769 45.16079162 104.33560954 45.16786944 116.47558594 45.17211914 C117.22400821 45.17238186 117.97243048 45.17264459 118.74353222 45.17291527 C122.49818092 45.17422032 126.25282963 45.17548402 130.00747836 45.17672718 C161.15155607 45.18709235 192.29562568 45.20477857 223.43969727 45.22705078 C223.43969727 51.16705078 223.43969727 57.10705078 223.43969727 63.22705078 C144.56969727 63.22705078 65.69969727 63.22705078 -15.56030273 63.22705078 C-15.56030273 63.88705078 -15.56030273 64.54705078 -15.56030273 65.22705078 C-16.72561523 65.35080078 -17.89092773 65.47455078 -19.09155273 65.60205078 C-39.14557902 68.02097054 -59.30834825 74.097226 -76.39624023 85.05517578 C-78.56030273 86.22705078 -78.56030273 86.22705078 -81.56030273 86.22705078 C-81.56030273 86.88705078 -81.56030273 87.54705078 -81.56030273 88.22705078 C-83.37167764 89.67798347 -85.23794508 91.06044727 -87.12280273 92.41455078 C-92.74205955 96.57340012 -97.76141251 101.14316661 -102.68530273 106.10205078 C-103.64351929 107.06534302 -103.64351929 107.06534302 -104.62109375 108.0480957 C-106.29232979 109.75292218 -107.93382641 111.47960597 -109.56030273 113.22705078 C-110.19709961 113.91025391 -110.83389648 114.59345703 -111.48999023 115.29736328 C-113.12307625 118.24168625 -113.04992915 119.87408908 -112.56030273 123.22705078 C-111.21197965 126.54272402 -109.5138492 129.61742734 -107.74780273 132.72705078 C-107.25296387 133.60981689 -106.758125 134.49258301 -106.24829102 135.40209961 C-92.18088821 159.90323411 -70.34595745 179.04651216 -43.07202148 187.41845703 C-15.97099045 193.65862769 12.4075573 193.20667891 37.43969727 180.22705078 C38.09969727 180.22705078 38.75969727 180.22705078 39.43969727 180.22705078 C39.43969727 179.56705078 39.43969727 178.90705078 39.43969727 178.22705078 C40.07133789 177.92154297 40.70297852 177.61603516 41.35375977 177.30126953 C63.72692283 165.8567841 82.19449666 145.49258587 91.25219727 121.91455078 C91.64407227 120.69767578 92.03594727 119.48080078 92.43969727 118.22705078 C92.68075195 117.57091797 92.92180664 116.91478516 93.17016602 116.23876953 C97.2871425 104.80736781 98.82412642 93.29223945 99.43969727 81.22705078 C105.70969727 81.22705078 111.97969727 81.22705078 118.43969727 81.22705078 C119.40811813 114.47616702 106.97151918 145.86894138 84.43969727 170.22705078 C83.96129395 170.74928223 83.48289062 171.27151367 82.98999023 171.80957031 C75.83757844 179.53589679 68.33941369 185.54818411 59.43969727 191.22705078 C58.37750977 191.93861328 57.31532227 192.65017578 56.22094727 193.38330078 C49.22349156 197.93504382 42.3548121 201.06662038 34.40844727 203.58984375 C32.23997609 204.29169268 30.09051862 205.03930251 27.93969727 205.79345703 C26.37738087 206.33435223 24.81488277 206.8747229 23.25219727 207.41455078 C22.54039307 207.66479004 21.82858887 207.9150293 21.09521484 208.17285156 C10.74132936 211.67345658 0.65042877 212.57742581 -10.23803711 212.54272461 C-12.29392191 212.53957587 -14.34834559 212.56307563 -16.40405273 212.58837891 C-49.15666304 212.74675189 -78.8337196 197.99899185 -101.81030273 175.35205078 C-111.0228108 166.04840496 -118.31150119 156.02046433 -124.93139648 144.74658203 C-126.31539209 142.13770723 -126.31539209 142.13770723 -128.56030273 141.22705078 C-128.80780273 142.34080078 -129.05530273 143.45455078 -129.31030273 144.60205078 C-130.1001737 147.79490949 -131.13561509 150.7080913 -132.43530273 153.72705078 C-134.18406297 158.001073 -135.52607432 162.32404911 -136.68530273 166.78955078 C-137.15323242 168.58585937 -137.15323242 168.58585937 -137.63061523 170.41845703 C-140.95737668 186.19713588 -140.96519862 202.24143887 -141.18530273 218.28955078 C-141.22358345 220.62094396 -141.2626406 222.95232452 -141.30249023 225.28369141 C-141.39736345 230.93136397 -141.48271205 236.57911569 -141.56030273 242.22705078 C-118.17575739 242.21319702 -94.79141606 242.17074074 -71.40698624 242.09496021 C-60.54726197 242.06042241 -49.68766317 242.03496947 -38.82788086 242.03149414 C-29.35384056 242.02843858 -19.88002434 242.00773571 -10.40607047 241.96652621 C-5.3974768 241.94533811 -0.38920054 241.93252178 4.61943817 241.94089699 C9.35070404 241.94852804 14.08133158 241.93225358 18.81248093 241.89899063 C20.53272242 241.89086489 22.25302875 241.89087727 23.97326279 241.90045357 C36.76993313 241.96453694 48.16442024 239.7787704 60.43969727 236.22705078 C61.57539028 235.90885785 62.7110833 235.59066492 63.88119125 235.26282978 C66.87392737 234.41679574 69.69284738 233.60047572 72.47875977 232.20751953 C75.34300318 230.77539782 78.35780108 230.07722904 81.43969727 229.22705078 C83.44331034 228.57132287 85.44461659 227.90829784 87.43969727 227.22705078 C87.43969727 226.56705078 87.43969727 225.90705078 87.43969727 225.22705078 C88.09454102 224.89833984 88.74938477 224.56962891 89.42407227 224.23095703 C121.97757089 207.26451495 141.46446379 178.856615 153.43969727 145.22705078 C153.69589844 144.60113037 153.95209961 143.97520996 154.21606445 143.33032227 C156.3538908 138.05115961 157.35213076 132.92961042 158.06469727 127.28955078 C158.19021973 126.31953125 158.31574219 125.34951172 158.44506836 124.35009766 C159.66352741 113.96502791 159.94288631 103.55919541 160.14916992 93.11401367 C160.32695112 84.11756418 160.78185075 75.19964585 161.43969727 66.22705078 C167.37969727 66.22705078 173.31969727 66.22705078 179.43969727 66.22705078 C183.44516914 114.48652641 179.21908304 164.38078785 146.74633789 203.0559082 C144.77429212 205.33136943 142.76762924 207.57205836 140.73657227 209.79492188 C139.00335658 211.70889838 137.35185753 213.68884665 135.68969727 215.66455078 C126.23992606 226.33219227 113.13300427 235.77549392 100.43969727 242.22705078 C99.77969727 242.22705078 99.11969727 242.22705078 98.43969727 242.22705078 C98.43969727 242.88705078 98.43969727 243.54705078 98.43969727 244.22705078 C97.19508944 244.90373077 95.9437283 245.56799797 94.68969727 246.22705078 C93.99360352 246.59830078 93.29750977 246.96955078 92.58032227 247.35205078 C90.43969727 248.22705078 90.43969727 248.22705078 86.43969727 248.22705078 C86.10969727 249.21705078 85.77969727 250.20705078 85.43969727 251.22705078 C79.23871023 255.13137595 71.61884922 256.09371971 64.50610352 257.18798828 C63.8087207 257.29626953 63.11133789 257.40455078 62.39282227 257.51611328 C61.77568359 257.60586426 61.15854492 257.69561523 60.52270508 257.78808594 C58.31924498 258.20040222 58.31924498 258.20040222 55.82898426 259.1850605 C51.94905455 260.37789223 48.14885636 260.92747137 44.12809753 261.33786011 C43.30452135 261.42216872 42.48094517 261.50647733 41.63241214 261.59334075 C30.58107388 262.61487131 19.51311533 262.49026542 8.42529297 262.45410156 C5.96931971 262.45353612 3.51334611 262.4538566 1.05737305 262.45498657 C-4.18942383 262.4554386 -9.43617549 262.44985205 -14.6829586 262.43851089 C-22.26854075 262.42212517 -29.85409896 262.41703467 -37.43969689 262.41453491 C-49.75245492 262.41017809 -62.06518616 262.39692418 -74.37792969 262.37792969 C-86.32519397 262.35951839 -98.27245092 262.34538772 -110.21972656 262.33691406 C-110.95849672 262.33638862 -111.69726687 262.33586317 -112.45842399 262.3353218 C-116.16531564 262.33271137 -119.87220733 262.33018404 -123.57909906 262.32769799 C-154.23951945 262.30702829 -184.89990734 262.27170762 -215.56030273 262.22705078 C-215.60721098 253.85403498 -215.64246233 245.48107656 -215.66392708 237.1079607 C-215.67424325 233.21751487 -215.68817138 229.32716068 -215.71118164 225.43676758 C-215.96206649 181.85624679 -215.96206649 181.85624679 -211.31030273 163.03955078 C-211.09704346 162.14083252 -210.88378418 161.24211426 -210.6640625 160.31616211 C-207.91503214 149.08938742 -204.52144149 137.85579151 -199.56811523 127.38720703 C-197.78229529 123.55946117 -196.22153597 119.63493198 -194.61108398 115.73095703 C-193.97274577 114.20986115 -193.2980301 112.70250552 -192.56030273 111.22705078 C-191.90030273 111.22705078 -191.24030273 111.22705078 -190.56030273 111.22705078 C-190.48682617 110.55673828 -190.41334961 109.88642578 -190.33764648 109.19580078 C-189.29346655 105.20797793 -187.33441298 102.17691403 -185.12280273 98.72705078 C-184.67686768 98.02435059 -184.23093262 97.32165039 -183.77148438 96.59765625 C-177.49173862 86.84679949 -170.40728708 77.91899231 -162.53686523 69.39501953 C-160.82073803 67.5127061 -159.20978185 65.59273512 -157.62280273 63.60205078 C-156.94217773 62.81830078 -156.26155273 62.03455078 -155.56030273 61.22705078 C-154.90030273 61.22705078 -154.24030273 61.22705078 -153.56030273 61.22705078 C-153.23030273 60.23705078 -152.90030273 59.24705078 -152.56030273 58.22705078 C-150.09472621 55.68041421 -147.27542235 53.5025796 -144.56030273 51.22705078 C-143.74819336 50.50517578 -142.93608398 49.78330078 -142.09936523 49.03955078 C-129.61821091 38.16771435 -114.84026454 27.17507518 -99.25561523 21.38720703 C-96.44468093 20.25296177 -96.44468093 20.25296177 -93.59155273 18.41064453 C-88.06432743 15.19177838 -81.95999131 13.29962493 -75.93530273 11.22705078 C-74.97488068 10.8955603 -74.97488068 10.8955603 -73.99505615 10.55737305 C-63.60723986 6.99635344 -53.22487219 4.15510965 -42.33014774 2.62765312 C-40.43300198 2.35326916 -38.53963559 2.05177462 -36.65040493 1.72734261 C-24.45567393 -0.19421096 -12.3189245 -0.0399188 0 0 Z " fill="#C8C8C8" transform="translate(321.560302734375,85.77294921875)"/>
<path d="M0 0 C13.53 0 27.06 0 41 0 C41.04621793 7.68244656 41.08595119 15.36439956 41.10986328 23.046875 C41.1198448 25.65366258 41.13343476 28.26043918 41.15087891 30.8671875 C41.39213001 67.87794569 41.39213001 67.87794569 36 80 C35.56300781 81.2271875 35.12601562 82.454375 34.67578125 83.71875 C29.58114682 97.96167333 23.49102857 111.11370237 14 123 C12.93458984 124.36898437 12.93458984 124.36898437 11.84765625 125.765625 C0.96846637 139.45543159 -12.70122818 152.91250377 -29 160 C-29.66 160 -30.32 160 -31 160 C-31 160.66 -31 161.32 -31 162 C-35.57833561 164.92234188 -39.38037114 166.48273179 -44.6953125 167.51171875 C-47.71879343 168.15228674 -50.56570171 169.13932384 -53.484375 170.14453125 C-56.47643851 171.16201869 -59.48376356 172.1190493 -62.5 173.0625 C-64.03140625 173.54396484 -64.03140625 173.54396484 -65.59375 174.03515625 C-66.7178125 174.35355469 -67.841875 174.67195312 -69 175 C-70.18959824 175.34521698 -71.37919647 175.69043396 -72.60484314 176.04611206 C-80.17785399 177.69388217 -88.01903897 177.26108257 -95.72875977 177.22705078 C-97.52316786 177.226486 -99.31757642 177.22680453 -101.11198425 177.22793579 C-105.96257718 177.22850769 -110.81307042 177.21677974 -115.66364026 177.20278788 C-120.74051227 177.19025338 -125.81738676 177.18910788 -130.89427185 177.18673706 C-140.4988044 177.18053028 -150.10329122 177.16413031 -159.70780367 177.14403808 C-170.64612917 177.12165412 -181.58445689 177.11067937 -192.52279961 177.10064721 C-215.01522506 177.07976337 -237.50760996 177.044603 -260 177 C-260.05137541 170.19054446 -260.08601177 163.38114019 -260.10986328 156.5715332 C-260.11982322 154.26259494 -260.13339603 151.95366895 -260.15087891 149.64477539 C-260.34637729 123.13174434 -257.11634312 100.55202375 -247 76 C-242.61748641 77.49928097 -241.54183232 80.25588941 -239.5 84.25 C-235.05181122 92.47802999 -229.35408216 99.18267977 -223 106 C-222.47212891 106.57169922 -221.94425781 107.14339844 -221.40039062 107.73242188 C-214.01727024 115.65511257 -206.32369573 122.38269776 -197 128 C-196.38205566 128.37608398 -195.76411133 128.75216797 -195.12744141 129.13964844 C-176.23762647 140.41588022 -155.23815328 146.38548813 -133.26733398 146.31567383 C-131.20046847 146.31251979 -129.13504872 146.33604377 -127.06835938 146.36132812 C-114.10379627 146.42496701 -102.17058276 143.65692248 -89.875 139.6875 C-88.92560547 139.38118652 -87.97621094 139.07487305 -86.99804688 138.75927734 C-55.40176685 128.3047851 -29.28575758 104.8154188 -14.07495117 75.41186523 C-6.90296195 61.01393748 -3.20909404 46.9095305 -1 31 C-0.34 31 0.32 31 1 31 C0.67 20.77 0.34 10.54 0 0 Z " fill="#292929" transform="translate(440,151)"/>
<path d="M0 0 C12.87 0 25.74 0 39 0 C39.36828677 39.95911468 39.36828677 39.95911468 34 53 C33.74734375 53.65355469 33.4946875 54.30710938 33.234375 54.98046875 C23.44618573 78.69458183 6.04272765 102.38876683 -18 113 C-18.66 113 -19.32 113 -20 113 C-20 113.66 -20 114.32 -20 115 C-40.3404175 129.42249256 -70.35213517 128.62276976 -93.703125 124.9609375 C-113.50055654 121.54880022 -130.45953988 111.59172088 -145 98 C-145.73347656 97.34644531 -146.46695313 96.69289063 -147.22265625 96.01953125 C-156.15660764 87.68946524 -162.61558059 77.03101768 -168.625 66.5 C-169.06312012 65.7467041 -169.50124023 64.9934082 -169.95263672 64.21728516 C-172.24749165 60.07618659 -173.98889811 56.83758263 -173 52 C-171.42932573 49.81419474 -170.00705011 48.12081772 -168.125 46.25 C-167.62613281 45.7334082 -167.12726563 45.21681641 -166.61328125 44.68457031 C-165.58375182 43.62311243 -164.54756719 42.56806975 -163.50488281 41.51953125 C-162.12576518 40.12698937 -160.7761096 38.705429 -159.4296875 37.28125 C-153.83699045 31.45477462 -147.87781342 26.27475209 -141 22 C-140.34 22 -139.68 22 -139 22 C-138.84144531 22.72703125 -138.68289062 23.4540625 -138.51953125 24.203125 C-136.01897309 34.97901099 -132.25137872 45.76550722 -126 55 C-125.01 55.495 -125.01 55.495 -124 56 C-124.12375 55.195625 -124.2475 54.39125 -124.375 53.5625 C-123.72133386 47.35267166 -119.87480433 42.78335046 -115.4375 38.5625 C-110.45036311 35.36561738 -106.61110171 34.76427847 -100.6875 34.875 C-98.80611328 34.90207031 -98.80611328 34.90207031 -96.88671875 34.9296875 C-95.93410156 34.95289063 -94.98148437 34.97609375 -94 35 C-93.67 35.99 -93.34 36.98 -93 38 C-91.34302621 38.69040574 -89.6744239 39.3530635 -88 40 C-83.59727579 42.83032271 -81.14936098 45.89860552 -80 51 C-79.20360092 58.70176187 -79.09772144 64.80764813 -84 71 C-87.24006692 74.39097415 -90.20243784 76.57668569 -95 77 C-95 77.99 -95 78.98 -95 80 C-93.2365625 80.185625 -93.2365625 80.185625 -91.4375 80.375 C-88.76546896 80.65626643 -86.58795497 81.14313143 -84.03125 82.03125 C-78.51676909 83.66017475 -72.75518627 83.20914431 -67.0625 83.125 C-65.32129883 83.11146484 -65.32129883 83.11146484 -63.54492188 83.09765625 C-60.69639892 83.07421162 -57.84830922 83.04139522 -55 83 C-55 82.34 -55 81.68 -55 81 C-54.12859375 80.87625 -53.2571875 80.7525 -52.359375 80.625 C-39.68044841 78.42951488 -31.57235167 72.32378406 -22 64 C-21.34 64 -20.68 64 -20 64 C-19.73832031 63.42765625 -19.47664062 62.8553125 -19.20703125 62.265625 C-17.9151137 59.84066649 -16.41735476 57.88259256 -14.6875 55.75 C-9.24271083 48.82232646 -5.42482395 42.51645485 -3 34 C-2.34 34 -1.68 34 -1 34 C-0.00525685 26.61383628 0.11791476 19.38318472 0.0625 11.9375 C0.0315625 6.0284375 0.0315625 6.0284375 0 0 Z " fill="#292929" transform="translate(381,151)"/>
<path d="M0 0 C79.86 0 159.72 0 242 0 C242 27.39 242 54.78 242 83 C241.67 83 241.34 83 241 83 C241 67.82 241 52.64 241 37 C234.73 37 228.46 37 222 37 C222.00785522 39.26242554 222.00785522 39.26242554 222.01586914 41.57055664 C222.03400914 47.18204146 222.0454649 52.7935237 222.05493164 58.4050293 C222.05995129 60.83081499 222.06676837 63.25659766 222.07543945 65.68237305 C222.0876088 69.17497502 222.0932521 72.66753689 222.09765625 76.16015625 C222.10281754 77.23959 222.10797882 78.31902374 222.11329651 79.4311676 C222.1136889 84.73291906 221.93451731 89.77769736 221 95 C220.67 95 220.34 95 220 95 C220.33 70.91 220.66 46.82 221 22 C213.74 22 206.48 22 199 22 C199 38.5 199 55 199 72 C198.67 72 198.34 72 198 72 C197.67 55.5 197.34 39 197 22 C191.06 22 185.12 22 179 22 C179.01546875 25.17302734 179.01546875 25.17302734 179.03125 28.41015625 C179.04666782 37.09243446 178.78605471 45.76082703 178.5 54.4375 C178.45160633 55.9589775 178.40342827 57.48046188 178.35546875 59.00195312 C178.23945122 62.66805093 178.12056309 66.33404852 178 70 C177.67 70 177.34 70 177 70 C177 53.83 177 37.66 177 21 C163.47 21 149.94 21 136 21 C136.33 23.31 136.66 25.62 137 28 C137.0748573 29.97671554 137.1083487 31.95549021 137.09765625 33.93359375 C137.09443359 34.99384766 137.09121094 36.05410156 137.08789062 37.14648438 C137.07951172 38.23251953 137.07113281 39.31855469 137.0625 40.4375 C137.05798828 41.55060547 137.05347656 42.66371094 137.04882812 43.81054688 C137.03711193 46.54042101 137.02070699 49.27018174 137 52 C136.67 52 136.34 52 136 52 C136 47.05 136 42.1 136 37 C129.73 37 123.46 37 117 37 C117.04125 39.10375 117.0825 41.2075 117.125 43.375 C117.13745165 49.5012114 116.52853913 55.07691088 115 61 C113.61501393 57.15281648 114.42501392 53.97974526 115 50 C115.13902995 47.65930425 115.24349154 45.31634338 115.31640625 42.97265625 C115.35451416 41.81258057 115.39262207 40.65250488 115.43188477 39.45727539 C115.47498779 38.00699951 115.51809082 36.55672363 115.5625 35.0625 C115.706875 30.421875 115.85125 25.78125 116 21 C103.13 21 90.26 21 77 21 C77.33 21.66 77.66 22.32 78 23 C78.24360633 26.68193565 78.1852129 30.37341575 78.1875 34.0625 C78.19974609 35.07505859 78.21199219 36.08761719 78.22460938 37.13085938 C78.23674996 43.40754126 77.59866046 48.92761779 76 55 C75.34 55 74.68 55 74 55 C73.814375 56.7634375 73.814375 56.7634375 73.625 58.5625 C70.39507342 73.41544703 56.6686448 85.66951157 45 94 C44.18660156 94.60714844 43.37320313 95.21429688 42.53515625 95.83984375 C36.19565771 100.3967065 29.87956774 102.50835921 22 102 C22 102.66 22 103.32 22 104 C9.85411734 106.42136568 -3.26814481 105.9309862 -15 102 C-15.99 101.67 -16.98 101.34 -18 101 C-18 100.01 -18 99.02 -18 98 C-17.48050781 97.78085938 -16.96101563 97.56171875 -16.42578125 97.3359375 C-11.23385503 94.97509859 -8.28405391 92.67728891 -5 88 C-3.00913531 82.02740592 -2.92082906 74.08544342 -4.9375 68.0625 C-7.45041428 64.33120304 -10.2028117 62.52746558 -14.0390625 60.26171875 C-16 59 -16 59 -17 57 C-28.74380446 56.14860894 -28.74380446 56.14860894 -39 61 C-43.74428728 65.80811177 -45.82253672 70.40620562 -47 77 C-52.05428454 75.31523849 -53.64306475 70.56028575 -56 66 C-59.19645796 59.01041193 -61.52491881 52.55528097 -61.76171875 44.828125 C-61.84035156 44.22484375 -61.91898438 43.6215625 -62 43 C-62.66 42.67 -63.32 42.34 -64 42 C-62.35681781 41.07858943 -60.71027565 40.1631706 -59.0625 39.25 C-58.14597656 38.73953125 -57.22945312 38.2290625 -56.28515625 37.703125 C-38.59886458 28.53401303 -18.12431996 20.65302897 2 21 C2 20.34 2 19.68 2 19 C80.87 19 159.74 19 241 19 C241 13.06 241 7.12 241 1 C161.47 1 81.94 1 0 1 C0 0.67 0 0.34 0 0 Z " fill="#CACACA" transform="translate(304,130)"/>
<path d="M0 0 C79.86 0 159.72 0 242 0 C242 27.39 242 54.78 242 83 C241.67 83 241.34 83 241 83 C241 67.82 241 52.64 241 37 C234.73 37 228.46 37 222 37 C222.00785522 39.26242554 222.00785522 39.26242554 222.01586914 41.57055664 C222.03400914 47.18204146 222.0454649 52.7935237 222.05493164 58.4050293 C222.05995129 60.83081499 222.06676837 63.25659766 222.07543945 65.68237305 C222.0876088 69.17497502 222.0932521 72.66753689 222.09765625 76.16015625 C222.10281754 77.23959 222.10797882 78.31902374 222.11329651 79.4311676 C222.1136889 84.73291906 221.93451731 89.77769736 221 95 C220.67 95 220.34 95 220 95 C220.33 70.91 220.66 46.82 221 22 C213.74 22 206.48 22 199 22 C199 38.5 199 55 199 72 C198.67 72 198.34 72 198 72 C197.67 55.5 197.34 39 197 22 C191.06 22 185.12 22 179 22 C179.01546875 25.17302734 179.01546875 25.17302734 179.03125 28.41015625 C179.04666782 37.09243446 178.78605471 45.76082703 178.5 54.4375 C178.45160633 55.9589775 178.40342827 57.48046188 178.35546875 59.00195312 C178.23945122 62.66805093 178.12056309 66.33404852 178 70 C177.67 70 177.34 70 177 70 C177 53.83 177 37.66 177 21 C163.47 21 149.94 21 136 21 C136.33 23.31 136.66 25.62 137 28 C137.0748573 29.97671554 137.1083487 31.95549021 137.09765625 33.93359375 C137.09443359 34.99384766 137.09121094 36.05410156 137.08789062 37.14648438 C137.07951172 38.23251953 137.07113281 39.31855469 137.0625 40.4375 C137.05798828 41.55060547 137.05347656 42.66371094 137.04882812 43.81054688 C137.03711193 46.54042101 137.02070699 49.27018174 137 52 C136.67 52 136.34 52 136 52 C136 47.05 136 42.1 136 37 C129.73 37 123.46 37 117 37 C117.04125 39.10375 117.0825 41.2075 117.125 43.375 C117.13745165 49.5012114 116.52853913 55.07691088 115 61 C113.61501393 57.15281648 114.42501392 53.97974526 115 50 C115.13902995 47.65930425 115.24349154 45.31634338 115.31640625 42.97265625 C115.35451416 41.81258057 115.39262207 40.65250488 115.43188477 39.45727539 C115.47498779 38.00699951 115.51809082 36.55672363 115.5625 35.0625 C115.706875 30.421875 115.85125 25.78125 116 21 C103.13 21 90.26 21 77 21 C77.33 21.66 77.66 22.32 78 23 C78.24360633 26.68193565 78.1852129 30.37341575 78.1875 34.0625 C78.19974609 35.07505859 78.21199219 36.08761719 78.22460938 37.13085938 C78.23674996 43.40754126 77.59866046 48.92761779 76 55 C74.5950596 51.10939581 75.30486761 47.76907638 75.9375 43.75 C76.22947266 41.85507813 76.22947266 41.85507813 76.52734375 39.921875 C76.76130859 38.47554687 76.76130859 38.47554687 77 37 C66.89722347 37.03836343 56.79480872 37.09816085 46.69231701 37.18390274 C41.99921133 37.22309093 37.30628525 37.25541762 32.61303711 37.27099609 C28.0675282 37.28635447 23.52251407 37.32112887 18.97722816 37.36830902 C17.25971132 37.38292824 15.54212376 37.39102955 13.82454491 37.39188385 C-10.56239263 37.41616878 -40.02632133 43.02632133 -58 61 C-60.32465218 55.54212097 -61.3926808 50.93315375 -61.69140625 45.00390625 C-61.79324219 44.34261719 -61.89507812 43.68132812 -62 43 C-62.66 42.67 -63.32 42.34 -64 42 C-62.35681781 41.07858943 -60.71027565 40.1631706 -59.0625 39.25 C-58.14597656 38.73953125 -57.22945312 38.2290625 -56.28515625 37.703125 C-38.59886458 28.53401303 -18.12431996 20.65302897 2 21 C2 20.34 2 19.68 2 19 C80.87 19 159.74 19 241 19 C241 13.06 241 7.12 241 1 C161.47 1 81.94 1 0 1 C0 0.67 0 0.34 0 0 Z " fill="#999999" transform="translate(304,130)"/>
<path d="M0 0 C41.02702703 0 41.02702703 0 48.875 6.3125 C53.60875896 12.2993128 55.86990391 16.40786147 55.58203125 24.1484375 C54.28564653 30.49985256 49.97396546 35.88422072 44.75 39.625 C42 41 42 41 39 41 C39 41.99 39 42.98 39 44 C39.99 44.33 40.98 44.66 42 45 C43.34692383 46.60717773 43.34692383 46.60717773 44.70703125 48.68359375 C45.20879883 49.44220703 45.71056641 50.20082031 46.22753906 50.98242188 C46.75057617 51.79259766 47.27361328 52.60277344 47.8125 53.4375 C48.34713867 54.25412109 48.88177734 55.07074219 49.43261719 55.91210938 C60 72.12702097 60 72.12702097 60 75 C53.73 75 47.46 75 41 75 C40.01 72.69 39.02 70.38 38 68 C37.33149123 66.78783782 36.63199083 65.59119718 35.87890625 64.4296875 C35.31139648 63.54990234 35.31139648 63.54990234 34.73242188 62.65234375 C34.34634766 62.06582031 33.96027344 61.47929687 33.5625 60.875 C33.18029297 60.28074219 32.79808594 59.68648438 32.40429688 59.07421875 C28.02192241 52.27825806 28.02192241 52.27825806 22 47 C22 46.34 22 45.68 22 45 C19.69 45 17.38 45 15 45 C15 54.57 15 64.14 15 74 C10.05 74 5.1 74 0 74 C0 49.58 0 25.16 0 0 Z " fill="#C8C8C8" transform="translate(91,430)"/>
<path d="M0 0 C5.28 0 10.56 0 16 0 C16 25.08 16 50.16 16 76 C7.82983027 74.36596605 3.20270847 69.50426729 -2.4375 63.75 C-3.10201172 63.07904297 -3.76652344 62.40808594 -4.45117188 61.71679688 C-8.28213905 57.82544007 -11.9967936 53.87397982 -15.51953125 49.69921875 C-17.69422572 47.20319739 -20.06628131 44.92118289 -22.4296875 42.60546875 C-24.4551251 40.53468553 -26.20012972 38.26650332 -28 36 C-28.66 35.67 -29.32 35.34 -30 35 C-30 48.53 -30 62.06 -30 76 C-35.28 76 -40.56 76 -46 76 C-46 51.25 -46 26.5 -46 1 C-41 2 -41 2 -39 4 C-38.24332031 4.25652344 -37.48664063 4.51304687 -36.70703125 4.77734375 C-33.21924082 6.35263726 -31.15286566 8.73378155 -28.6875 11.5625 C-27.6405626 12.7315801 -26.59231243 13.8994855 -25.54296875 15.06640625 C-24.98013184 15.69562988 -24.41729492 16.32485352 -23.83740234 16.97314453 C-19.78186958 21.44684012 -15.59344776 25.79877762 -11.43237305 30.17407227 C-8.7291812 33.03186665 -6.11133013 35.86046623 -3.65625 38.9375 C-2.16097615 41.0934212 -2.16097615 41.0934212 0 42 C0 28.14 0 14.28 0 0 Z " fill="#C5C5C5" transform="translate(453,429)"/>
<path d="M0 0 C0.69029297 -0.01611328 1.38058594 -0.03222656 2.09179688 -0.04882812 C9.51423484 -0.05586361 13.90024884 2.82710592 19.25 7.6875 C20.08917969 8.43773437 20.92835938 9.18796875 21.79296875 9.9609375 C28.27597454 16.6782688 28.16182566 23.52130182 28.390625 32.41015625 C28.01187013 35.76033326 27.08548548 37.63646339 25.0625 40.3125 C24.4025 40.3125 23.7425 40.3125 23.0625 40.3125 C22.82015625 41.07304687 22.5778125 41.83359375 22.328125 42.6171875 C20.21327886 47.12102649 16.21762208 48.83650259 12.0625 51.3125 C10.70125 52.240625 10.70125 52.240625 9.3125 53.1875 C2.73421778 55.46459769 -5.05158726 55.61156755 -11.4375 52.625 C-14.77208598 50.63545711 -17.37062386 48.23588672 -19.9375 45.3125 C-20.63875 44.52875 -21.34 43.745 -22.0625 42.9375 C-27.84462906 34.84251931 -27.82172139 27.20730928 -26.375 17.5625 C-23.35891421 10.74352344 -17.46398818 4.58806666 -10.78515625 1.23046875 C-7.16902323 0.06477429 -3.75841633 -0.01744854 0 0 Z " fill="#C6C6C6" transform="translate(357.9375,451.6875)"/>
<path d="M0 0 C0 0.66 0 1.32 0 2 C1.2684375 2.309375 1.2684375 2.309375 2.5625 2.625 C7.81929899 4.72771959 11.6548014 7.39469066 14.296875 12.51171875 C15.29430622 14.98722739 16.18645117 17.45875339 17 20 C17.495 21.485 17.495 21.485 18 23 C18 25.97 18 28.94 18 32 C5.79 32 -6.42 32 -19 32 C-15.91155715 38.66292951 -15.91155715 38.66292951 -12.75 40.4375 C-7.11531249 41.59004972 -2.23997044 41.61998522 3 39 C3 38.34 3 37.68 3 37 C7.34464536 37.60825035 11.67551867 38.26167392 16 39 C15.22336142 45.2685828 11.54200865 48.86940518 7 53 C0.27663813 56.36168094 -9.42297115 56.12241383 -16.66015625 54.34765625 C-22.09208171 52.1767495 -26.44162467 48.64533885 -30 44 C-30 43.34 -30 42.68 -30 42 C-30.66 42 -31.32 42 -32 42 C-34.45693319 36.96851448 -35.5544138 32.77247257 -35.5 27.125 C-35.49355469 26.42318604 -35.48710937 25.72137207 -35.48046875 24.99829102 C-35.1854851 16.60581206 -32.12265159 11.77919767 -26.1875 6.125 C-17.90303343 -0.49949924 -10.41548189 -0.39496912 0 0 Z " fill="#C4C4C4" transform="translate(509,451)"/>
<path d="M0 0 C2.90762447 1.48598916 4.84993283 3.52044619 6.94140625 5.9921875 C7.60140625 6.6521875 8.26140625 7.3121875 8.94140625 7.9921875 C9.64851303 9.64210332 10.30703281 11.3129637 10.94140625 12.9921875 C11.47765625 14.0440625 12.01390625 15.0959375 12.56640625 16.1796875 C13.94140625 19.9921875 13.94140625 19.9921875 13.94140625 29.9921875 C1.73140625 29.9921875 -10.47859375 29.9921875 -23.05859375 29.9921875 C-19.26740968 37.60505037 -19.26740968 37.60505037 -16.05859375 38.9921875 C-10.68135518 39.45463002 -6.0995984 39.06029197 -1.05859375 36.9921875 C-1.05859375 36.3321875 -1.05859375 35.6721875 -1.05859375 34.9921875 C3.32074744 35.51177035 7.62944016 36.04894492 11.94140625 36.9921875 C12.296875 39.1640625 12.296875 39.1640625 11.94140625 41.9921875 C10.07326711 44.00632157 8.38907235 45.57009963 6.25390625 47.2421875 C5.72345703 47.68820312 5.19300781 48.13421875 4.64648438 48.59375 C-2.06833125 54.0315148 -9.7266552 53.71284095 -18.05859375 52.9921875 C-27.122509 50.43467925 -32.12677669 45.37175449 -36.82421875 37.4296875 C-40.16770629 30.82735767 -40.17638973 22.48357256 -38.41015625 15.38671875 C-35.69110366 8.6355668 -31.04202232 3.0781878 -24.30859375 0.1171875 C-16.04830324 -2.74214383 -8.30565824 -3.12019361 0 0 Z " fill="#C5C5C5" transform="translate(193.05859375,453.0078125)"/>
<path d="M0 0 C4.62 0 9.24 0 14 0 C14 0.66 14 1.32 14 2 C14.67675781 1.67902344 15.35351562 1.35804688 16.05078125 1.02734375 C23.33779995 -1.51104819 32.5591574 -1.17308685 39.5625 2.0625 C46.19889545 5.97145838 49.94661013 10.5859292 52 18 C52.16237778 20.78486623 52.23437565 23.46222484 52.1953125 26.2421875 C52.1924826 27.01055939 52.18965271 27.77893127 52.18673706 28.57058716 C52.17561311 31.00555521 52.1505236 33.44014462 52.125 35.875 C52.11496011 37.53384882 52.10583603 39.19270346 52.09765625 40.8515625 C52.07740755 44.90130209 52.03824546 48.95023118 52 53 C46.72 53 41.44 53 36 53 C35.95101562 51.02257812 35.90203125 49.04515625 35.8515625 47.0078125 C35.79586073 45.05825061 35.74009429 43.10869005 35.68261719 41.15917969 C35.62624001 39.1687787 35.57864607 37.1781351 35.53125 35.1875 C35.31116531 27.92470525 34.77136266 21.05839105 33 14 C31.06318839 13.91892417 29.1254066 13.86077525 27.1875 13.8125 C26.10855469 13.77769531 25.02960938 13.74289062 23.91796875 13.70703125 C21.02172741 13.75040195 21.02172741 13.75040195 19.17578125 15.32421875 C16.54472028 19.07413621 16.78747517 23.12118742 16.68359375 27.51171875 C16.66281265 28.23994339 16.64203156 28.96816803 16.62062073 29.71846008 C16.55531254 32.04137875 16.49632763 34.36440906 16.4375 36.6875 C16.39429695 38.26368335 16.35068208 39.83985548 16.30664062 41.41601562 C16.19887632 45.27723104 16.09966444 49.138533 16 53 C10.72 53 5.44 53 0 53 C0 35.51 0 18.02 0 0 Z " fill="#C3C3C3" transform="translate(274,452)"/>
<path d="M0 0 C5.28 0 10.56 0 16 0 C16 5.61 16 11.22 16 17 C19.3 17 22.6 17 26 17 C26 21.29 26 25.58 26 30 C22.7 30 19.4 30 16 30 C16.14012137 33.64613696 16.28681398 37.29179789 16.4375 40.9375 C16.47681641 41.97841797 16.51613281 43.01933594 16.55664062 44.09179688 C16.59853516 45.08115234 16.64042969 46.07050781 16.68359375 47.08984375 C16.72025146 48.00628662 16.75690918 48.92272949 16.79467773 49.86694336 C16.77003864 51.9820728 16.77003864 51.9820728 18 53 C20.32817964 53.36760731 22.6618385 53.70241581 25 54 C25.495 60.435 25.495 60.435 26 67 C10.9506347 67.31029619 10.9506347 67.31029619 6 65 C4.5625 62.375 4.5625 62.375 4 60 C3.34 60 2.68 60 2 60 C-0.66641331 54.01631659 -0.22314726 48.03477075 -0.125 41.625 C-0.11597656 40.50738281 -0.10695313 39.38976562 -0.09765625 38.23828125 C-0.07418346 35.49196538 -0.04134728 32.74609528 0 30 C-2.31 30 -4.62 30 -7 30 C-7 25.71 -7 21.42 -7 17 C-4.69 17 -2.38 17 0 17 C0 11.39 0 5.78 0 0 Z " fill="#C4C4C4" transform="translate(536,437)"/>
<path d="M0 0 C4.95 0 9.9 0 15 0 C15 5.61 15 11.22 15 17 C18.3 17 21.6 17 25 17 C25 20.96 25 24.92 25 29 C21.7 29 18.4 29 15 29 C15.11370953 32.43821706 15.24046338 35.87508925 15.375 39.3125 C15.4059375 40.28896484 15.436875 41.26542969 15.46875 42.27148438 C15.50742188 43.20927734 15.54609375 44.14707031 15.5859375 45.11328125 C15.63306885 46.40939331 15.63306885 46.40939331 15.68115234 47.73168945 C15.87188037 50.27742445 15.87188037 50.27742445 18 53 C21.56769552 53.73606499 21.56769552 53.73606499 25 54 C27.38297872 62.78723404 27.38297872 62.78723404 27 67 C25.03523763 68.96476237 21.36468224 68.18499562 18.6875 68.1875 C18.01009766 68.19974609 17.33269531 68.21199219 16.63476562 68.22460938 C12.93109067 68.23547059 10.0326575 68.23313871 7 66 C5.33203125 63.94140625 5.33203125 63.94140625 3.8125 61.5625 C3.30332031 60.78003906 2.79414063 59.99757813 2.26953125 59.19140625 C0.13150576 55.50084533 -0.11979744 52.64171682 -0.09765625 48.45703125 C-0.09443359 47.38388672 -0.09121094 46.31074219 -0.08789062 45.20507812 C-0.07951172 44.08552734 -0.07113281 42.96597656 -0.0625 41.8125 C-0.05798828 40.68134766 -0.05347656 39.55019531 -0.04882812 38.38476562 C-0.03703498 35.58979073 -0.0205765 32.7949218 0 30 C-2.31 30 -4.62 30 -7 30 C-7 25.71 -7 21.42 -7 17 C-4.69 17 -2.38 17 0 17 C0 11.39 0 5.78 0 0 Z " fill="#C6C6C6" transform="translate(216,437)"/>
<path d="M0 0 C79.86 0 159.72 0 242 0 C242 27.39 242 54.78 242 83 C241.67 83 241.34 83 241 83 C241 67.82 241 52.64 241 37 C234.73 37 228.46 37 222 37 C222 31.39 222 25.78 222 20 C149.4 20 76.8 20 2 20 C2 19.67 2 19.34 2 19 C80.87 19 159.74 19 241 19 C241 13.06 241 7.12 241 1 C161.47 1 81.94 1 0 1 C0 0.67 0 0.34 0 0 Z " fill="#A5A5A5" transform="translate(304,130)"/>
<path d="M0 0 C5.28 0 10.56 0 16 0 C16 17.49 16 34.98 16 53 C10.72 53 5.44 53 0 53 C0 35.51 0 18.02 0 0 Z " fill="#C0C0C0" transform="translate(250,452)"/>
<path d="M0 0 C84.81 0 169.62 0 257 0 C257 0.33 257 0.66 257 1 C172.52 1 88.04 1 1 1 C1 6.94 1 12.88 1 19 C35.42170479 18.91809477 69.84336471 18.82608379 104.26500327 18.71994839 C108.32803581 18.7074294 112.3910686 18.69499664 116.45410156 18.68261719 C117.2629843 18.68015119 118.07186704 18.6776852 118.90526138 18.67514448 C132.0056126 18.63541189 145.10597245 18.60266676 158.20634879 18.57250018 C171.64677121 18.54139518 185.08715697 18.50278984 198.52753818 18.45720994 C206.82214486 18.42931749 215.11672469 18.40728773 223.41136567 18.39273749 C229.09794253 18.38220204 234.78446743 18.36438665 240.47100516 18.34083296 C243.75269966 18.32745556 247.0343073 18.31837954 250.3160305 18.31578636 C253.87421036 18.31247054 257.43213656 18.29701102 260.99026489 18.2784729 C262.02723483 18.28040763 263.06420477 18.28234237 264.13259804 18.28433573 C269.18696061 18.24486354 273.24543643 17.91371139 278 16 C280.5546875 15.8046875 280.5546875 15.8046875 282.875 15.875 C283.65617187 15.89304687 284.43734375 15.91109375 285.2421875 15.9296875 C285.82226562 15.95289063 286.40234375 15.97609375 287 16 C273.97081998 24.68612001 251.28751978 21.1364485 236.35986328 21.11352539 C233.7765503 21.11324295 231.19323725 21.11340236 228.60992432 21.1139679 C223.07276039 21.11448931 217.53560835 21.11138274 211.99844742 21.10573006 C203.99288918 21.09756285 195.98733662 21.09499451 187.98177467 21.09374207 C174.9896369 21.09155971 161.99750544 21.08492185 149.00537109 21.07543945 C136.39339225 21.06624416 123.78141512 21.05917371 111.16943359 21.05493164 C110.39051888 21.05466892 109.61160417 21.05440619 108.80908598 21.05413551 C104.9010482 21.05283036 100.99301042 21.05156668 97.08497262 21.05032361 C64.7233103 21.03997642 32.36165649 21.02210297 0 21 C0 14.07 0 7.14 0 0 Z " fill="#A2A2A2" transform="translate(106,372)"/>
<path d="M0 0 C48.18 0 96.36 0 146 0 C146 68 146 68 145 75 C144.67 75 144.34 75 144 75 C144.33 50.91 144.66 26.82 145 2 C137.74 2 130.48 2 123 2 C123 18.5 123 35 123 52 C122.67 52 122.34 52 122 52 C121.67 35.5 121.34 19 121 2 C115.06 2 109.12 2 103 2 C103.01546875 5.17302734 103.01546875 5.17302734 103.03125 8.41015625 C103.04666782 17.09243446 102.78605471 25.76082703 102.5 34.4375 C102.45160633 35.9589775 102.40342827 37.48046188 102.35546875 39.00195312 C102.23945122 42.66805093 102.12056309 46.33404852 102 50 C101.67 50 101.34 50 101 50 C101 33.83 101 17.66 101 1 C87.47 1 73.94 1 60 1 C60.495 4.465 60.495 4.465 61 8 C61.0748573 9.97671554 61.1083487 11.95549021 61.09765625 13.93359375 C61.09443359 14.99384766 61.09121094 16.05410156 61.08789062 17.14648438 C61.07532227 18.77553711 61.07532227 18.77553711 61.0625 20.4375 C61.05798828 21.55060547 61.05347656 22.66371094 61.04882812 23.81054688 C61.03711193 26.54042101 61.02070699 29.27018174 61 32 C60.67 32 60.34 32 60 32 C60 27.05 60 22.1 60 17 C53.73 17 47.46 17 41 17 C41.04125 19.10375 41.0825 21.2075 41.125 23.375 C41.13745165 29.5012114 40.52853913 35.07691088 39 41 C37.61501393 37.15281648 38.42501392 33.97974526 39 30 C39.13902995 27.65930425 39.24349154 25.31634338 39.31640625 22.97265625 C39.35451416 21.81258057 39.39262207 20.65250488 39.43188477 19.45727539 C39.47498779 18.00699951 39.51809082 16.55672363 39.5625 15.0625 C39.706875 10.421875 39.85125 5.78125 40 1 C27.13 1 14.26 1 1 1 C1.33 1.66 1.66 2.32 2 3 C2.24360633 6.68193565 2.1852129 10.37341575 2.1875 14.0625 C2.19974609 15.07505859 2.21199219 16.08761719 2.22460938 17.13085938 C2.23674996 23.40754126 1.59866046 28.92761779 0 35 C-1.51340155 30.7961068 -0.72030914 29.04216399 0 24 C0 16.08 0 8.16 0 0 Z " fill="#8E8E8E" transform="translate(380,150)"/>
<path d="M0 0 C3.55069198 1.75710613 5.90378174 3.61548094 8 7 C8.65734393 11.41652952 8.47948634 15.5714109 8 20 C7.34 20 6.68 20 6 20 C5.566875 20.8971875 5.566875 20.8971875 5.125 21.8125 C4 24 4 24 2 27 C-2.54294037 28.0396779 -7.06040688 27.94654801 -11.28125 25.88671875 C-14.50633892 23.22337688 -15.77956892 20.97601983 -16.703125 16.88671875 C-17.0243314 12.24528625 -17.02201436 8.6022885 -14.47265625 4.60546875 C-10.24912275 0.4990233 -5.82678345 -1.89370462 0 0 Z " fill="#2B2B2B" transform="translate(362,465)"/>
<path d="M0 0 C0.33 0 0.66 0 1 0 C1.20625 0.928125 1.4125 1.85625 1.625 2.8125 C2.92052354 7.4955777 5.40379716 11.48185701 7.85546875 15.64453125 C8.23316406 16.42183594 8.61085937 17.19914062 9 18 C8 20 8 20 6.66796875 21.640625 C4.42217417 24.81734614 2.91314949 28.21453621 1.3125 31.75 C0.99216797 32.44738281 0.67183594 33.14476562 0.34179688 33.86328125 C-0.44306261 35.57357208 -1.22211648 37.28652507 -2 39 C-4.68143482 35.75435872 -7.03566394 32.49273981 -9.1875 28.875 C-9.95126953 27.60269531 -9.95126953 27.60269531 -10.73046875 26.3046875 C-12 24 -12 24 -13 21 C-9.90490932 13.49939718 -5.00675402 6.35843968 0 0 Z " fill="#979797" transform="translate(207,204)"/>
<path d="M0 0 C6.6 0 13.2 0 20 0 C20 20.79 20 41.58 20 63 C19.67 63 19.34 63 19 63 C19 47.82 19 32.64 19 17 C12.73 17 6.46 17 0 17 C0 11.39 0 5.78 0 0 Z " fill="#9B9B9B" transform="translate(526,150)"/>
<path d="M0 0 C7.93903068 -0.27694293 14.58476238 -0.00029531 22 3 C23.56918492 4.56918492 23.28258943 6.14085159 23.375 8.3125 C23.3248022 11.82634633 23.28550049 12.66259033 20.9375 15.4375 C13.92218432 19.16905089 7.78196172 19.1921472 0 19 C0 12.73 0 6.46 0 0 Z " fill="#373737" transform="translate(106,443)"/>
<path d="M0 0 C28.38 0 56.76 0 86 0 C86.020625 11.075625 86.04125 22.15125 86.0625 33.5625 C86.071604 37.0488501 86.08070801 40.5352002 86.09008789 44.12719727 C86.09460449 48.4119873 86.09460449 48.4119873 86.09544373 50.42320251 C86.09697088 51.81623149 86.10047033 53.20925921 86.10557556 54.60227966 C86.11295212 56.72258776 86.11390409 58.84281566 86.11352539 60.96313477 C86.115746 62.15560318 86.11796661 63.34807159 86.12025452 64.57667542 C85.99602111 68.11326833 85.56238201 71.50845432 85 75 C84.67 75 84.34 75 84 75 C84.33 50.91 84.66 26.82 85 2 C77.74 2 70.48 2 63 2 C63 18.5 63 35 63 52 C62.67 52 62.34 52 62 52 C61.67 35.5 61.34 19 61 2 C55.06 2 49.12 2 43 2 C43.0103125 4.11535156 43.020625 6.23070312 43.03125 8.41015625 C43.04666782 17.09243446 42.78605471 25.76082703 42.5 34.4375 C42.45160633 35.9589775 42.40342827 37.48046188 42.35546875 39.00195312 C42.23945122 42.66805093 42.12056309 46.33404852 42 50 C41.67 50 41.34 50 41 50 C41 33.83 41 17.66 41 1 C27.47 1 13.94 1 0 1 C0 0.67 0 0.34 0 0 Z " fill="#666666" transform="translate(440,150)"/>
<path d="M0 0 C5.94 0 11.88 0 18 0 C18.97578365 11.32523697 19.11938746 22.51682801 19.0625 33.875 C19.05747018 35.6419258 19.05290992 37.408853 19.04882812 39.17578125 C19.0379509 43.45055626 19.02076977 47.72526208 19 52 C18.67 52 18.34 52 18 52 C18 39.79 18 27.58 18 15 C12.06 15 6.12 15 0 15 C0 10.05 0 5.1 0 0 Z " fill="#9D9D9D" transform="translate(483,152)"/>
<path d="M0 0 C1.22589844 0.01353516 1.22589844 0.01353516 2.4765625 0.02734375 C3.10304688 0.03894531 3.72953125 0.05054688 4.375 0.0625 C-8.65418002 8.74862001 -31.33748022 5.1989485 -46.26513672 5.17602539 C-48.8484497 5.17574295 -51.43176275 5.17590236 -54.01507568 5.1764679 C-59.55223961 5.17698931 -65.08939165 5.17388274 -70.62655258 5.16823006 C-78.63211082 5.16006285 -86.63766338 5.15749451 -94.64322533 5.15624207 C-107.6353631 5.15405971 -120.62749456 5.14742185 -133.61962891 5.13793945 C-146.23160775 5.12874416 -158.84358488 5.12167371 -171.45556641 5.11743164 C-172.23448112 5.11716892 -173.01339583 5.11690619 -173.81591402 5.11663551 C-177.7239518 5.11533036 -181.63198958 5.11406668 -185.54002738 5.11282361 C-217.90168951 5.10247642 -250.26334387 5.08488043 -282.625 5.0625 C-282.625 4.7325 -282.625 4.4025 -282.625 4.0625 C-282.08092341 4.06114347 -281.53684683 4.05978694 -280.97628307 4.05838931 C-248.67570223 3.97760665 -216.37516849 3.88659824 -184.074655 3.78244839 C-180.18974419 3.76993065 -176.30483312 3.7574977 -172.41992188 3.74511719 C-171.646559 3.74265119 -170.87319613 3.7401852 -170.07639802 3.73764448 C-157.58095653 3.69800256 -145.08550609 3.66521747 -132.59003866 3.63500018 C-119.75299379 3.60380297 -106.91598665 3.56515874 -94.07898426 3.51970994 C-86.16827515 3.4919339 -78.25759339 3.46985415 -70.34684885 3.45523749 C-64.26422401 3.44337385 -58.18168086 3.42111123 -52.09909821 3.39511681 C-49.61604042 3.38609701 -47.13296801 3.38036399 -44.64989471 3.37828636 C-29.75315958 3.3635983 -14.38288659 -0.20546981 0 0 Z " fill="#6A6A6A" transform="translate(388.625,387.9375)"/>
<path d="M0 0 C8 0 8 0 11 2 C11.2773676 4.57385205 11.37287588 6.87031753 11.3125 9.4375 C11.31572266 10.11876953 11.31894531 10.80003906 11.32226562 11.50195312 C11.28242585 15.19980816 11.0988558 16.85171631 9 20 C6.03 20 3.06 20 0 20 C0 13.4 0 6.8 0 0 Z " fill="#B4B4B4" transform="translate(204,534)"/>
<path d="M0 0 C2.01822917 0.06510417 4.03645833 0.13020833 6.0546875 0.1953125 C7.63393592 3.35380935 7.19785264 6.7318253 7.1796875 10.1953125 C7.18355469 10.93265625 7.18742187 11.67 7.19140625 12.4296875 C7.1813473 17.9419929 7.1813473 17.9419929 6.0546875 20.1953125 C0 20.390625 0 20.390625 -1.9453125 20.1953125 C-4.50480249 17.63582251 -4.20599981 15.92324055 -4.21875 12.4296875 C-4.21101563 11.69234375 -4.20328125 10.955 -4.1953125 10.1953125 C-4.20304687 9.45796875 -4.21078125 8.720625 -4.21875 7.9609375 C-4.19123127 0.42080635 -4.19123127 0.42080635 0 0 Z " fill="#8E8E8E" transform="translate(296.9453125,533.8046875)"/>
<path d="M0 0 C3.5625 0.1875 3.5625 0.1875 5.5625 2.1875 C5.6875 4.8125 5.6875 4.8125 5.5625 7.1875 C6.2225 7.1875 6.8825 7.1875 7.5625 7.1875 C7.67074843 8.7901782 7.74820645 10.39495748 7.8125 12 C7.85890625 12.89332031 7.9053125 13.78664063 7.953125 14.70703125 C7.5625 17.1875 7.5625 17.1875 5.7421875 18.9921875 C2.84902731 20.57875922 0.81218885 20.54072705 -2.4375 20.1875 C-4.4375 18.1875 -4.4375 18.1875 -4.66796875 14.30859375 C-4.66397576 12.74733524 -4.64921261 11.18607586 -4.625 9.625 C-4.62435547 8.83158203 -4.62371094 8.03816406 -4.62304688 7.22070312 C-4.56946606 0.2492436 -4.56946606 0.2492436 0 0 Z " fill="#313131" transform="translate(264.4375,533.8125)"/>
<path d="M0 0 C12.21 0 24.42 0 37 0 C37 0.33 37 0.66 37 1 C32.38 1.33 27.76 1.66 23 2 C23 2.66 23 3.32 23 4 C23.66 4.33 24.32 4.66 25 5 C24.01 5 23.02 5 22 5 C22 5.66 22 6.32 22 7 C17.08173124 10.02662693 12.66815835 11.11899067 7 10 C2.87219421 6.92610207 1.95353175 4.88382939 0 0 Z " fill="#2F2F2F" transform="translate(170,483)"/>
<path d="M0 0 C1.7265625 1.20703125 1.7265625 1.20703125 3 3 C3.3984375 5.41015625 3.3984375 5.41015625 3.375 8.0625 C3.38273437 8.94035156 3.39046875 9.81820313 3.3984375 10.72265625 C3.26695312 11.47417969 3.13546875 12.22570312 3 13 C-0.20380017 15.13586678 -1.01939967 15.23132175 -4.6875 15.125 C-5.49574219 15.10695313 -6.30398437 15.08890625 -7.13671875 15.0703125 C-8.05904297 15.03550781 -8.05904297 15.03550781 -9 15 C-10.99584278 10.88357426 -11.42196743 7.55724828 -11 3 C-8.90258304 -1.06374535 -4.06224211 -0.83538043 0 0 Z " fill="#C2C2C2" transform="translate(262,431)"/>
<path d="M0 0 C3.375 -0.125 3.375 -0.125 7 0 C9.55948999 2.55948999 9.26068731 4.27207195 9.2734375 7.765625 C9.26570313 8.50296875 9.25796875 9.2403125 9.25 10 C9.25773437 10.73734375 9.26546875 11.4746875 9.2734375 12.234375 C9.2533196 17.7466804 9.2533196 17.7466804 7 20 C4 20.25 4 20.25 1 20 C-1 18 -1 18 -1.23046875 14.62890625 C-1.22647796 13.2733677 -1.21172505 11.91782794 -1.1875 10.5625 C-1.18685547 9.88123047 -1.18621094 9.19996094 -1.18554688 8.49804688 C-1.15827338 5.40402053 -0.98489776 2.95469327 0 0 Z " fill="#B0B0B0" transform="translate(494,534)"/>
<path d="M0 0 C2.31 0 4.62 0 7 0 C9.91015782 2.91015782 9.53796608 6.08763217 9.75 10 C9.83314453 11.10601563 9.83314453 11.10601563 9.91796875 12.234375 C10.03350452 14.15296893 10.02485227 16.07809117 10 18 C9.34 18.66 8.68 19.32 8 20 C5.36 20 2.72 20 0 20 C0 13.4 0 6.8 0 0 Z " fill="#A8A8A8" transform="translate(339,534)"/>
<path d="M0 0 C3.917982 0.85920658 5.60111118 2.45891434 8.2265625 5.48828125 C8.2265625 7.13828125 8.2265625 8.78828125 8.2265625 10.48828125 C1.2965625 10.48828125 -5.6334375 10.48828125 -12.7734375 10.48828125 C-11.22173443 2.72976588 -7.85379239 -0.45967012 0 0 Z " fill="#363636" transform="translate(182.7734375,462.51171875)"/>
<path d="M0 0 C4.75877135 0.66789773 8.15260329 2.09010329 11.5625 5.5 C11.5625 7.15 11.5625 8.8 11.5625 10.5 C4.6325 10.5 -2.2975 10.5 -9.4375 10.5 C-8.20930049 4.35900245 -6.51148245 0.94712472 0 0 Z " fill="#353535" transform="translate(499.4375,462.5)"/>
<path d="M0 0 C2.05859375 0.43359375 2.05859375 0.43359375 4.05859375 3.43359375 C4.48519838 7.34413616 4.64505656 9.55389953 2.43359375 12.87109375 C-0.65825856 14.90520711 -2.3050805 15.03964804 -5.94140625 14.43359375 C-8.31640625 12.80859375 -8.31640625 12.80859375 -9.94140625 10.43359375 C-10.41982796 7.15298774 -10.21793198 5.13412561 -9.00390625 2.05859375 C-6.07966119 -0.24535691 -3.63350799 -0.00596635 0 0 Z " fill="#303030" transform="translate(362.94140625,172.56640625)"/>
<path d="M0 0 C3.375 -0.125 3.375 -0.125 7 0 C9 2 9 2 9.22705078 3.87939453 C9.21134033 4.99483643 9.21134033 4.99483643 9.1953125 6.1328125 C9.18564453 7.34130859 9.18564453 7.34130859 9.17578125 8.57421875 C9.15902344 9.41597656 9.14226562 10.25773438 9.125 11.125 C9.11597656 11.97449219 9.10695312 12.82398438 9.09765625 13.69921875 C9.07405647 15.79959884 9.03818483 17.89983444 9 20 C7.54207116 20.05399736 6.08357288 20.09279177 4.625 20.125 C3.40683594 20.15980469 3.40683594 20.15980469 2.1640625 20.1953125 C0 20 0 20 -2 18 C-2.25 14.5 -2.25 14.5 -2 11 C0 9 0 9 3.125 8.875 C4.07375 8.91625 5.0225 8.9575 6 9 C5.67 7.02 5.34 5.04 5 3 C4.01 3 3.02 3 2 3 C1.67 3.99 1.34 4.98 1 6 C0.34 6 -0.32 6 -1 6 C-0.67 4.02 -0.34 2.04 0 0 Z " fill="#BDBDBD" transform="translate(149,534)"/>
<path d="M0 0 C3.5 0.25 3.5 0.25 5.5 2.25 C5.6953125 4.4140625 5.6953125 4.4140625 5.625 6.875 C5.60695313 7.69226563 5.58890625 8.50953125 5.5703125 9.3515625 C5.53550781 10.29128906 5.53550781 10.29128906 5.5 11.25 C2.86 11.25 0.22 11.25 -2.5 11.25 C-2.17 13.23 -1.84 15.21 -1.5 17.25 C-0.18 17.58 1.14 17.91 2.5 18.25 C2.5 17.26 2.5 16.27 2.5 15.25 C3.16 15.25 3.82 15.25 4.5 15.25 C4.17 16.9 3.84 18.55 3.5 20.25 C-2.125 20.5 -2.125 20.5 -5.5 18.25 C-5.77613568 15.49458159 -5.87257625 12.99908898 -5.8125 10.25 C-5.81572266 9.51265625 -5.81894531 8.7753125 -5.82226562 8.015625 C-5.74593605 0.410424 -5.74593605 0.410424 0 0 Z " fill="#898989" transform="translate(419.5,533.75)"/>
<path d="M0 0 C3.0625 0.25 3.0625 0.25 6.0625 2.25 C6.47387202 5.28866799 6.19443156 8.17159703 6.0625 11.25 C3.0925 11.25 0.1225 11.25 -2.9375 11.25 C-2.6075 13.23 -2.2775 15.21 -1.9375 17.25 C-0.6175 17.25 0.7025 17.25 2.0625 17.25 C2.3925 16.59 2.7225 15.93 3.0625 15.25 C3.7225 15.25 4.3825 15.25 5.0625 15.25 C5.0625 16.9 5.0625 18.55 5.0625 20.25 C-0.9921875 20.4453125 -0.9921875 20.4453125 -2.9375 20.25 C-5.49698999 17.69051001 -5.19818731 15.97792805 -5.2109375 12.484375 C-5.20320312 11.74703125 -5.19546875 11.0096875 -5.1875 10.25 C-5.19523438 9.51265625 -5.20296875 8.7753125 -5.2109375 8.015625 C-5.18329336 0.44113135 -5.18329336 0.44113135 0 0 Z " fill="#939393" transform="translate(223.9375,533.75)"/>
<path d="M0 0 C2 2 2 2 2.1953125 4.1640625 C2.17210937 4.97617187 2.14890625 5.78828125 2.125 6.625 C2.10695312 7.44226563 2.08890625 8.25953125 2.0703125 9.1015625 C2.03550781 10.04128906 2.03550781 10.04128906 2 11 C-0.64 11 -3.28 11 -6 11 C-5.67 12.98 -5.34 14.96 -5 17 C-3.68 17 -2.36 17 -1 17 C-0.67 16.34 -0.34 15.68 0 15 C0.66 15 1.32 15 2 15 C1.125 18.875 1.125 18.875 0 20 C-2.9375 20.1875 -2.9375 20.1875 -6 20 C-8.47385671 17.52614329 -8.28571102 16.02495772 -8.32226562 12.63867188 C-8.31904297 11.95353516 -8.31582031 11.26839844 -8.3125 10.5625 C-8.32861328 9.88123047 -8.34472656 9.19996094 -8.36132812 8.49804688 C-8.36421552 5.55002081 -8.35348946 3.50788715 -6.640625 1.046875 C-4.31757254 -0.43545371 -2.6965549 -0.34571217 0 0 Z " fill="#ABABAB" transform="translate(253,534)"/>
<path d="M0 0 C1 1 1 1 1.11352539 2.76586914 C1.10828857 3.51473389 1.10305176 4.26359863 1.09765625 5.03515625 C1.09443359 5.84404297 1.09121094 6.65292969 1.08789062 7.48632812 C1.07951172 8.33646484 1.07113281 9.18660156 1.0625 10.0625 C1.05798828 10.91650391 1.05347656 11.77050781 1.04882812 12.65039062 C1.03700373 14.76695663 1.01906769 16.88348685 1 19 C0.01 19 -0.98 19 -2 19 C-2 13.06 -2 7.12 -2 1 C-2.99 1.33 -3.98 1.66 -5 2 C-5.33 7.61 -5.66 13.22 -6 19 C-6.99 19 -7.98 19 -9 19 C-9 12.73 -9 6.46 -9 0 C-5.16046631 -0.95988342 -3.67125527 -0.99223115 0 0 Z " fill="#9A9A9A" transform="translate(318,535)"/>
<path d="M0 0 C2.31 0.33 4.62 0.66 7 1 C7 5.62 7 10.24 7 15 C8.98 15 10.96 15 13 15 C13 15.33 13 15.66 13 16 C6.565 16.495 6.565 16.495 0 17 C0 11.39 0 5.78 0 0 Z " fill="#242424" transform="translate(107,444)"/>
<path d="M0 0 C0.99 0 1.98 0 3 0 C3 4.29 3 8.58 3 13 C4.32 12.67 5.64 12.34 7 12 C7.33 8.04 7.66 4.08 8 0 C8.99 0 9.98 0 11 0 C11 4.29 11 8.58 11 13 C9.02 13.99 9.02 13.99 7 15 C7 16.65 7 18.3 7 20 C6.01 20 5.02 20 4 20 C4 18.35 4 16.7 4 15 C2.68 14.34 1.36 13.68 0 13 C0 8.71 0 4.42 0 0 Z " fill="#A0A0A0" transform="translate(183,534)"/>
<path d="M0 0 C1 1 1 1 1.11352539 2.85766602 C1.10828857 3.64842529 1.10305176 4.43918457 1.09765625 5.25390625 C1.09443359 6.10791016 1.09121094 6.96191406 1.08789062 7.84179688 C1.07951172 8.73962891 1.07113281 9.63746094 1.0625 10.5625 C1.05798828 11.46419922 1.05347656 12.36589844 1.04882812 13.29492188 C1.03700225 15.53001314 1.0205222 17.76497437 1 20 C0.34 20 -0.32 20 -1 20 C-1 14.39 -1 8.78 -1 3 C-2.65 3 -4.3 3 -6 3 C-6 8.61 -6 14.22 -6 20 C-6.99 20 -7.98 20 -9 20 C-9 13.73 -9 7.46 -9 1 C-5.68024318 0.1700608 -3.35107416 -0.18113914 0 0 Z " fill="#A4A4A4" transform="translate(517,534)"/>
<path d="M0 0 C0.99 0 1.98 0 3 0 C3.1953125 1.98567708 3.390625 3.97135417 3.5859375 5.95703125 C3.92665391 8.29988142 3.92665391 8.29988142 6 11 C6.99 7.37 7.98 3.74 9 0 C9.99 0 10.98 0 12 0 C10.75297849 6.35450323 9.42635741 12.68327435 8 19 C6.68 19.33 5.36 19.66 4 20 C3.32550034 17.60612843 2.66023359 15.21030779 2 12.8125 C1.80921875 12.13896484 1.6184375 11.46542969 1.421875 10.77148438 C0.4174164 7.09444844 -0.23704741 3.8149818 0 0 Z " fill="#A0A0A0" transform="translate(447,534)"/>
<path d="M0 0 C1.32 0 2.64 0 4 0 C4 5.61 4 11.22 4 17 C5.32 17 6.64 17 8 17 C8 18.32 8 19.64 8 21 C5.36 21 2.72 21 0 21 C0 14.07 0 7.14 0 0 Z " fill="#5D5D5D" transform="translate(174,534)"/>
<path d="M0 0 C3.375 -0.125 3.375 -0.125 7 0 C9 2 9 2 9 6 C8.01 6 7.02 6 6 6 C6 4.68 6 3.36 6 2 C4.68 2.33 3.36 2.66 2 3 C2 7.62 2 12.24 2 17 C3.32 17 4.64 17 6 17 C6.33 15.35 6.66 13.7 7 12 C5.68 12 4.36 12 3 12 C3 11.34 3 10.68 3 10 C4.98 10 6.96 10 9 10 C9.1953125 16.0546875 9.1953125 16.0546875 9 18 C7 20 7 20 4 20.25 C1 20 1 20 -1 18 C-1.1723963 15.47833891 -1.23250592 13.08046287 -1.1875 10.5625 C-1.18685547 9.88123047 -1.18621094 9.19996094 -1.18554688 8.49804688 C-1.15827338 5.40402053 -0.98489776 2.95469327 0 0 Z " fill="#A8A8A8" transform="translate(374,534)"/>
<path d="M0 0 C0.66 0 1.32 0 2 0 C2 2.97 2 5.94 2 9 C3.98 9 5.96 9 8 9 C8 6.03 8 3.06 8 0 C8.66 0 9.32 0 10 0 C10 6.6 10 13.2 10 20 C9.34 20 8.68 20 8 20 C8 17.03 8 14.06 8 11 C6.02 11 4.04 11 2 11 C2 13.97 2 16.94 2 20 C1.34 20 0.68 20 0 20 C0 13.4 0 6.8 0 0 Z " fill="#AFAFAF" transform="translate(388,534)"/>
<path d="M0 0 C3.5625 0.1875 3.5625 0.1875 5.5625 2.1875 C5.6875 4.8125 5.6875 4.8125 5.5625 7.1875 C4.5725 7.1875 3.5825 7.1875 2.5625 7.1875 C2.2325 5.8675 1.9025 4.5475 1.5625 3.1875 C0.5725 3.1875 -0.4175 3.1875 -1.4375 3.1875 C-1.4375 7.8075 -1.4375 12.4275 -1.4375 17.1875 C-0.1175 17.5175 1.2025 17.8475 2.5625 18.1875 C2.5625 16.8675 2.5625 15.5475 2.5625 14.1875 C3.5525 14.1875 4.5425 14.1875 5.5625 14.1875 C4.6875 19.0625 4.6875 19.0625 3.5625 20.1875 C0.625 20.375 0.625 20.375 -2.4375 20.1875 C-4.4375 18.1875 -4.4375 18.1875 -4.66796875 14.30859375 C-4.66397576 12.74733524 -4.64921261 11.18607586 -4.625 9.625 C-4.62435547 8.83158203 -4.62371094 8.03816406 -4.62304688 7.22070312 C-4.56946606 0.2492436 -4.56946606 0.2492436 0 0 Z " fill="#B2B2B2" transform="translate(264.4375,533.8125)"/>
<path d="M0 0 C3.375 -0.125 3.375 -0.125 7 0 C9 2 9 2 9 6 C8.01 6 7.02 6 6 6 C6 4.68 6 3.36 6 2 C4.68 2.33 3.36 2.66 2 3 C1.67 4.32 1.34 5.64 1 7 C1.5775 7.226875 2.155 7.45375 2.75 7.6875 C5.67824265 9.39564155 7.19951842 11.13256637 9 14 C8.70731707 18.29268293 8.70731707 18.29268293 7 20 C4.0625 20.1875 4.0625 20.1875 1 20 C0.34 19.34 -0.32 18.68 -1 18 C-1 16.68 -1 15.36 -1 14 C-0.34 14 0.32 14 1 14 C1.33 14.99 1.66 15.98 2 17 C4.01508358 17.73323796 4.01508358 17.73323796 6 18 C5.01633674 14.15477088 4.29971002 12.27183002 1.3125 9.5625 C-1 7 -1 7 -0.8125 3.1875 C-0.544375 2.135625 -0.27625 1.08375 0 0 Z " fill="#A4A4A4" transform="translate(471,534)"/>
<path d="M0 0 C1.65 0.33 3.3 0.66 5 1 C5 5.62 5 10.24 5 15 C3.35 15.33 1.7 15.66 0 16 C-1 15 -1 15 -1.1328125 11.875 C-1.13023437 10.59625 -1.12765625 9.3175 -1.125 8 C-1.12757813 6.72125 -1.13015625 5.4425 -1.1328125 4.125 C-1 1 -1 1 0 0 Z " fill="#3C3C3C" transform="translate(496,536)"/>
<path d="M0 0 C2.31 0 4.62 0 7 0 C7 0.66 7 1.32 7 2 C5.68 2 4.36 2 3 2 C3 7.28 3 12.56 3 18 C3.66 18 4.32 18 5 18 C5 16.02 5 14.04 5 12 C5.99 12 6.98 12 8 12 C8.125 14.875 8.125 14.875 8 18 C7.34 18.66 6.68 19.32 6 20 C1.44444444 19.44444444 1.44444444 19.44444444 0 18 C-0.08631874 16.65732587 -0.10706473 15.31025678 -0.09765625 13.96484375 C-0.09443359 13.15595703 -0.09121094 12.34707031 -0.08789062 11.51367188 C-0.07951172 10.66353516 -0.07113281 9.81339844 -0.0625 8.9375 C-0.05798828 8.08349609 -0.05347656 7.22949219 -0.04882812 6.34960938 C-0.03700373 4.23304337 -0.01906769 2.11651315 0 0 Z " fill="#AAAAAA" transform="translate(274,534)"/>
<path d="M0 0 C2.31 0 4.62 0 7 0 C7 0.66 7 1.32 7 2 C5.68 2 4.36 2 3 2 C3 7.28 3 12.56 3 18 C3.99 18 4.98 18 6 18 C6 16.35 6 14.7 6 13 C6.66 13 7.32 13 8 13 C8.04254356 14.99954746 8.04080783 17.00041636 8 19 C7 20 7 20 4.5625 20.1875 C2 20 2 20 0 18 C-0.22705078 16.12060547 -0.22705078 16.12060547 -0.1953125 13.8671875 C-0.18886719 13.06152344 -0.18242187 12.25585938 -0.17578125 11.42578125 C-0.15064453 10.16314453 -0.15064453 10.16314453 -0.125 8.875 C-0.11597656 8.02550781 -0.10695313 7.17601562 -0.09765625 6.30078125 C-0.07405647 4.20040116 -0.03818483 2.10016556 0 0 Z " fill="#9F9F9F" transform="translate(403,534)"/>
<path d="M0 0 C2.64 0 5.28 0 8 0 C9 1 9 1 9.0625 3.5625 C9.041875 4.366875 9.02125 5.17125 9 6 C8.34 6 7.68 6 7 6 C7 5.01 7 4.02 7 3 C5.68 3 4.36 3 3 3 C3 8.61 3 14.22 3 20 C2.01 20 1.02 20 0 20 C0 13.4 0 6.8 0 0 Z " fill="#999999" transform="translate(353,534)"/>
<path d="M0 0 C2.475 0.495 2.475 0.495 5 1 C5 5.62 5 10.24 5 15 C3.35 15.33 1.7 15.66 0 16 C0 10.72 0 5.44 0 0 Z " fill="#343434" transform="translate(296,536)"/>
<path d="M0 0 C2.475 0.495 2.475 0.495 5 1 C5 5.62 5 10.24 5 15 C3.35 15.33 1.7 15.66 0 16 C0 10.72 0 5.44 0 0 Z " fill="#393939" transform="translate(207,536)"/>
<path d="M0 0 C2.64 0 5.28 0 8 0 C8 0.66 8 1.32 8 2 C6.02 2 4.04 2 2 2 C2 4.31 2 6.62 2 9 C3.65 9 5.3 9 7 9 C7 9.66 7 10.32 7 11 C5.35 11 3.7 11 2 11 C2 13.31 2 15.62 2 18 C4.31 18 6.62 18 9 18 C9 18.66 9 19.32 9 20 C6.03 20 3.06 20 0 20 C0 13.4 0 6.8 0 0 Z " fill="#ACACAC" transform="translate(135,534)"/>
<path d="M0 0 C0.66 0.33 1.32 0.66 2 1 C2.10251672 6.12583611 2.03590199 10.94997778 1 16 C0.67 15.01 0.34 14.02 0 13 C-0.66 13 -1.32 13 -2 13 C-2.33 13.99 -2.66 14.98 -3 16 C-4.65 15.67 -6.3 15.34 -8 15 C-8 13.02 -8 11.04 -8 9 C-5.36 9 -2.72 9 0 9 C0 6.03 0 3.06 0 0 Z " fill="#505050" transform="translate(255,536)"/>
<path d="M0 0 C0.78117187 0.01804687 1.56234375 0.03609375 2.3671875 0.0546875 C2.94726562 0.07789063 3.52734375 0.10109375 4.125 0.125 C-9.07806178 8.92704119 -31.8159412 5.23540366 -46.875 5.125 C-46.875 4.795 -46.875 4.465 -46.875 4.125 C-45.28631104 4.04983154 -45.28631104 4.04983154 -43.66552734 3.97314453 C-39.71781064 3.78410533 -35.77072515 3.58388682 -31.82373047 3.38037109 C-30.11880308 3.29400881 -28.4137214 3.21063626 -26.70849609 3.13037109 C-24.25050464 3.01414383 -21.79327773 2.88700121 -19.3359375 2.7578125 C-18.20120499 2.70767502 -18.20120499 2.70767502 -17.04354858 2.65652466 C-11.13801947 2.32947181 -5.86061649 -0.17759444 0 0 Z " fill="#737373" transform="translate(388.875,387.875)"/>
<path d="M0 0 C0.33 0 0.66 0 1 0 C1 1.98 1 3.96 1 6 C3.31 6 5.62 6 8 6 C8 4.02 8 2.04 8 0 C8.33 0 8.66 0 9 0 C9 2.64 9 5.28 9 8 C6.69 8 4.38 8 2 8 C2.33 9.98 2.66 11.96 3 14 C4.32 14.33 5.64 14.66 7 15 C7 14.01 7 13.02 7 12 C7.66 12 8.32 12 9 12 C8.67 13.65 8.34 15.3 8 17 C5.125 17.125 5.125 17.125 2 17 C0 15 0 15 -0.1953125 11.5234375 C-0.18201493 10.14049032 -0.15816232 8.75761346 -0.125 7.375 C-0.11597656 6.66859375 -0.10695313 5.9621875 -0.09765625 5.234375 C-0.07407603 3.48943902 -0.03820461 1.74467705 0 0 Z " fill="#B3B3B3" transform="translate(415,537)"/>
<path d="M0 0 C8 0 8 0 11 2 C11.22137393 4.62697064 11.28162025 7.00893964 11.1875 9.625 C11.17396484 10.33140625 11.16042969 11.0378125 11.14648438 11.765625 C11.1111104 13.51074128 11.05730221 15.25546608 11 17 C10.01 16.67 9.02 16.34 8 16 C7.67 11.71 7.34 7.42 7 3 C5.02 2.34 3.04 1.68 1 1 C1 7.27 1 13.54 1 20 C0.67 20 0.34 20 0 20 C0 13.4 0 6.8 0 0 Z " fill="#868686" transform="translate(204,534)"/>
<path d="M0 0 C0 1.65 0 3.3 0 5 C-0.99 5 -1.98 5 -3 5 C-3 4.01 -3 3.02 -3 2 C-3.99 2 -4.98 2 -6 2 C-6 7.61 -6 13.22 -6 19 C-6.66 19 -7.32 19 -8 19 C-8 12.73 -8 6.46 -8 0 C-4.71023192 -1.09658936 -3.28696233 -0.79953138 0 0 Z " fill="#B2B2B2" transform="translate(438,535)"/>
<path d="M0 0 C2.31 0 4.62 0 7 0 C7 0.66 7 1.32 7 2 C5.35 2 3.7 2 2 2 C2.33 6.95 2.66 11.9 3 17 C3.66 17 4.32 17 5 17 C5.66 15.68 6.32 14.36 7 13 C7 14.98 7 16.96 7 19 C4.625 19.625 4.625 19.625 2 20 C0 18 0 18 -0.22705078 16.12060547 C-0.21657715 15.37697754 -0.20610352 14.63334961 -0.1953125 13.8671875 C-0.18886719 13.06152344 -0.18242187 12.25585938 -0.17578125 11.42578125 C-0.15064453 10.16314453 -0.15064453 10.16314453 -0.125 8.875 C-0.11597656 8.02550781 -0.10695312 7.17601562 -0.09765625 6.30078125 C-0.07405647 4.20040116 -0.03818483 2.10016556 0 0 Z " fill="#AEAEAE" transform="translate(234,534)"/>
<path d="M0 0 C2.0625 0.4375 2.0625 0.4375 4 1 C3.01 1 2.02 1 1 1 C1 2.98 1 4.96 1 7 C2.98 7 4.96 7 7 7 C7 7.33 7 7.66 7 8 C5.02 8 3.04 8 1 8 C1 8.66 1 9.32 1 10 C2.32 10 3.64 10 5 10 C5 11.65 5 13.3 5 15 C3.34385343 15.38218767 1.67542976 15.71395102 0 16 C-1 15 -1 15 -1.1328125 11.875 C-1.13023437 10.59625 -1.12765625 9.3175 -1.125 8 C-1.12757813 6.72125 -1.13015625 5.4425 -1.1328125 4.125 C-1 1 -1 1 0 0 Z " fill="#484848" transform="translate(376,536)"/>
<path d="M0 0 C0 1.65 0 3.3 0 5 C-0.66 5 -1.32 5 -2 5 C-2 4.01 -2 3.02 -2 2 C-2.99 2.33 -3.98 2.66 -5 3 C-5.33 8.28 -5.66 13.56 -6 19 C-6.66 19 -7.32 19 -8 19 C-8 12.73 -8 6.46 -8 0 C-4.71023192 -1.09658936 -3.28696233 -0.79953138 0 0 Z " fill="#B3B3B3" transform="translate(171,535)"/>
<path d="M0 0 C0.33 0 0.66 0 1 0 C1 1.98 1 3.96 1 6 C3.31 6 5.62 6 8 6 C8 4.35 8 2.7 8 1 C8.33 1 8.66 1 9 1 C9 3.31 9 5.62 9 8 C6.36 8 3.72 8 1 8 C1.33 9.98 1.66 11.96 2 14 C3.32 14 4.64 14 6 14 C6.33 13.34 6.66 12.68 7 12 C7.66 12 8.32 12 9 12 C9 13.65 9 15.3 9 17 C2.84765625 17.09765625 2.84765625 17.09765625 1 17 C0 16 0 16 -0.09765625 12.40234375 C-0.0909822 10.91403133 -0.07902183 9.42573568 -0.0625 7.9375 C-0.05798828 7.17888672 -0.05347656 6.42027344 -0.04882812 5.63867188 C-0.0370068 3.75908129 -0.01907078 1.87953101 0 0 Z " fill="#BABABA" transform="translate(220,537)"/>
<path d="M0 0 C0.99 0 1.98 0 3 0 C3 6.6 3 13.2 3 20 C2.01 20 1.02 20 0 20 C0 13.4 0 6.8 0 0 Z " fill="#9A9A9A" transform="translate(485,534)"/>
<path d="M0 0 C0.99 0 1.98 0 3 0 C3 6.6 3 13.2 3 20 C2.01 20 1.02 20 0 20 C0 13.4 0 6.8 0 0 Z " fill="#9B9B9B" transform="translate(462,534)"/>
<path d="M0 0 C0.99 0 1.98 0 3 0 C3 6.6 3 13.2 3 20 C2.01 20 1.02 20 0 20 C0 13.4 0 6.8 0 0 Z " fill="#999999" transform="translate(365,534)"/>
<path d="M0 0 C0.66 0.66 1.32 1.32 2 2 C-1.63 2 -5.26 2 -9 2 C-9.33 3.32 -9.66 4.64 -10 6 C-10.680625 6.515625 -11.36125 7.03125 -12.0625 7.5625 C-15.22320658 11.5388728 -14.30384737 16.10468119 -14 21 C-14.66 20.67 -15.32 20.34 -16 20 C-17.19808 8.9344 -17.19808 8.9344 -14.5 4.578125 C-9.85466631 0.186833 -6.27949425 -0.97440428 0 0 Z " fill="#535353" transform="translate(362,465)"/>
<path d="M0 0 C0.66 0.33 1.32 0.66 2 1 C2 5.62 2 10.24 2 15 C3.32 15 4.64 15 6 15 C6.33 14.34 6.66 13.68 7 13 C7.66 13 8.32 13 9 13 C8.125 16.875 8.125 16.875 7 18 C4.0625 18.1875 4.0625 18.1875 1 18 C-1 16 -1 16 -1.23046875 12.55859375 C-1.22647911 11.18482696 -1.21173177 9.81105886 -1.1875 8.4375 C-1.18685547 7.73947266 -1.18621094 7.04144531 -1.18554688 6.32226562 C-1.14031158 1.14031158 -1.14031158 1.14031158 0 0 Z " fill="#B3B3B3" transform="translate(246,536)"/>
<path d="M0 0 C1.65 0 3.3 0 5 0 C4.01 0.33 3.02 0.66 2 1 C2 3.97 2 6.94 2 10 C3.32 10 4.64 10 6 10 C6 12.64 6 15.28 6 18 C4 17 4 17 3 16 C2.01 15.67 1.02 15.34 0 15 C0 10.05 0 5.1 0 0 Z " fill="#585858" transform="translate(236,536)"/>
<path d="M0 0 C3.375 -0.125 3.375 -0.125 7 0 C9 2 9 2 9.22705078 3.87939453 C9.21134033 4.99483643 9.21134033 4.99483643 9.1953125 6.1328125 C9.18564453 7.34130859 9.18564453 7.34130859 9.17578125 8.57421875 C9.15902344 9.41597656 9.14226562 10.25773438 9.125 11.125 C9.11597656 11.97449219 9.10695312 12.82398438 9.09765625 13.69921875 C9.07405647 15.79959884 9.03818483 17.89983444 9 20 C7.68 19.67 6.36 19.34 5 19 C5.99 19 6.98 19 8 19 C7.67 15.7 7.34 12.4 7 9 C6.67 9 6.34 9 6 9 C5.67 7.02 5.34 5.04 5 3 C4.01 3 3.02 3 2 3 C1.67 3.99 1.34 4.98 1 6 C0.34 6 -0.32 6 -1 6 C-0.67 4.02 -0.34 2.04 0 0 Z " fill="#949494" transform="translate(149,534)"/>
<path d="M0 0 C2.64 0 5.28 0 8 0 C8.33 2.31 8.66 4.62 9 7 C8.67 6.01 8.34 5.02 8 4 C7.34 4 6.68 4 6 4 C5.67 4.99 5.34 5.98 5 7 C3.35 6.67 1.7 6.34 0 6 C0 4.02 0 2.04 0 0 Z " fill="#474747" transform="translate(221,545)"/>
<path d="M0 0 C0.33 0 0.66 0 1 0 C1.33 4.62 1.66 9.24 2 14 C3.98 14 5.96 14 8 14 C8 9.38 8 4.76 8 0 C8.33 0 8.66 0 9 0 C9 5.61 9 11.22 9 17 C6.36 17 3.72 17 1 17 C0 16 0 16 -0.09765625 12.40234375 C-0.0909822 10.91403133 -0.07902183 9.42573568 -0.0625 7.9375 C-0.05798828 7.17888672 -0.05347656 6.42027344 -0.04882812 5.63867188 C-0.0370068 3.75908129 -0.01907078 1.87953101 0 0 Z " fill="#B4B4B4" transform="translate(294,537)"/>
<path d="M0 0 C0.66 0 1.32 0 2 0 C2 5.61 2 11.22 2 17 C3.65 17 5.3 17 7 17 C7 17.66 7 18.32 7 19 C4.69 19 2.38 19 0 19 C0 12.73 0 6.46 0 0 Z " fill="#AFAFAF" transform="translate(175,535)"/>
<path d="M0 0 C0.66 0.33 1.32 0.66 2 1 C2 4.63 2 8.26 2 12 C-0.83029148 13.41514574 -3.28379133 13.20780992 -6.4375 13.25 C-7.59121094 13.27578125 -8.74492188 13.3015625 -9.93359375 13.328125 C-13 13 -13 13 -16 10 C-10.39 10.33 -4.78 10.66 1 11 C0.67 7.37 0.34 3.74 0 0 Z " fill="#666666" transform="translate(561,493)"/>
<path d="M0 0 C0.33 0 0.66 0 1 0 C1 5.28 1 10.56 1 16 C1.66 16 2.32 16 3 16 C3 14.02 3 12.04 3 10 C3.99 10 4.98 10 6 10 C6.125 12.875 6.125 12.875 6 16 C5.34 16.66 4.68 17.32 4 18 C2.35 17.67 0.7 17.34 -1 17 C-0.67 11.39 -0.34 5.78 0 0 Z " fill="#919191" transform="translate(276,536)"/>
<path d="M0 0 C0.33 0 0.66 0 1 0 C1 2.31 1 4.62 1 7 C2.98 7 4.96 7 7 7 C8.4783226 9.95664519 8.06032783 12.74229737 8 16 C7.67 16 7.34 16 7 16 C6.7525 15.030625 6.505 14.06125 6.25 13.0625 C5.8375 12.051875 5.425 11.04125 5 10 C3.68 9.67 2.36 9.34 1 9 C1.33 11.97 1.66 14.94 2 18 C1.34 18 0.68 18 0 18 C0 12.06 0 6.12 0 0 Z " fill="#BABABA" transform="translate(340,535)"/>
<path d="M0 0 C0.99 0 1.98 0 3 0 C3 4.29 3 8.58 3 13 C2.01 13.33 1.02 13.66 0 14 C0 9.38 0 4.76 0 0 Z " fill="#999999" transform="translate(191,534)"/>
<path d="M0 0 C1.125 3.75 1.125 3.75 0 6 C-0.15520557 8.32273159 -0.25019167 10.64959313 -0.31640625 12.9765625 C-0.33718735 13.66181 -0.35796844 14.3470575 -0.37937927 15.05307007 C-0.44480185 17.24361069 -0.50372554 19.43427189 -0.5625 21.625 C-0.60569218 23.1093875 -0.6493067 24.59376278 -0.69335938 26.078125 C-0.80047553 29.71862084 -0.90176362 33.35925251 -1 37 C-1.33 37 -1.66 37 -2 37 C-2.04950925 32.37355096 -2.08577116 27.74725682 -2.10986328 23.12060547 C-2.11990887 21.54733595 -2.13354781 19.97408504 -2.15087891 18.40087891 C-2.17519096 16.13699748 -2.18649747 13.87336334 -2.1953125 11.609375 C-2.20563507 10.90818542 -2.21595764 10.20699585 -2.22659302 9.48455811 C-2.22743257 5.81436524 -2.02112595 3.11910787 0 0 Z " fill="#4E4E4E" transform="translate(292,468)"/>
<path d="M0 0 C1.67542976 0.28604898 3.34385343 0.61781233 5 1 C5 2.98 5 4.96 5 7 C3.02 7 1.04 7 -1 7 C-1.04254356 5.00045254 -1.04080783 2.99958364 -1 1 C-0.67 0.67 -0.34 0.34 0 0 Z " fill="#616161" transform="translate(248,536)"/>
<path d="M0 0 C0 0.99 0 1.98 0 3 C-1.65 2.67 -3.3 2.34 -5 2 C-6.175625 3.423125 -6.175625 3.423125 -7.375 4.875 C-8.86364904 6.67704884 -10.34378848 8.34378848 -12 10 C-12.21231713 6.88601543 -12.21590497 4.54695926 -11.0625 1.625 C-7.73685476 -0.99520534 -4.0782683 -0.30779383 0 0 Z " fill="#525252" transform="translate(365,173)"/>
<path d="M0 0 C2.475 0.495 2.475 0.495 5 1 C5 2.98 5 4.96 5 7 C3.35 7.33 1.7 7.66 0 8 C0 5.36 0 2.72 0 0 Z " fill="#414141" transform="translate(341,544)"/>
<path d="M0 0 C0.66 0 1.32 0 2 0 C2 5.28 2 10.56 2 16 C0.68 16.33 -0.64 16.66 -2 17 C-1.67 16.34 -1.34 15.68 -1 15 C-0.76827173 12.45384991 -0.58105471 9.92603775 -0.4375 7.375 C-0.39431641 6.66859375 -0.35113281 5.9621875 -0.30664062 5.234375 C-0.20055249 3.48981463 -0.09977111 1.74493303 0 0 Z " fill="#B2B2B2" transform="translate(501,536)"/>
<path d="M0 0 C0 4.29 0 8.58 0 13 C-0.99 13 -1.98 13 -3 13 C-3 9.04 -3 5.08 -3 1 C-1 0 -1 0 0 0 Z " fill="#212121" transform="translate(190,533)"/>
<path d="M0 0 C1.65 0 3.3 0 5 0 C5 1.98 5 3.96 5 6 C3.35 6.33 1.7 6.66 0 7 C0 4.69 0 2.38 0 0 Z " fill="#404040" transform="translate(150,545)"/>
<path d="M0 0 C2.475 0.495 2.475 0.495 5 1 C5 2.98 5 4.96 5 7 C3.35 7 1.7 7 0 7 C0 4.69 0 2.38 0 0 Z " fill="#3B3B3B" transform="translate(222,536)"/>
<path d="M0 0 C3.375 -0.125 3.375 -0.125 7 0 C9 2 9 2 9.125 4.625 C9.08375 5.40875 9.0425 6.1925 9 7 C8.01 7 7.02 7 6 7 C5.67 5.68 5.34 4.36 5 3 C3.02 3 1.04 3 -1 3 C-0.67 2.01 -0.34 1.02 0 0 Z " fill="#9A9A9A" transform="translate(261,534)"/>
<path d="M0 0 C0.66 0.33 1.32 0.66 2 1 C1.125 5.875 1.125 5.875 0 7 C-2.9375 7.1875 -2.9375 7.1875 -6 7 C-6.66 6.34 -7.32 5.68 -8 5 C-8 3.68 -8 2.36 -8 1 C-7.34 1 -6.68 1 -6 1 C-5.67 1.99 -5.34 2.98 -5 4 C-3.68 4 -2.36 4 -1 4 C-0.67 2.68 -0.34 1.36 0 0 Z " fill="#ACACAC" transform="translate(478,547)"/>
<path d="M0 0 C2.0625 0.4375 2.0625 0.4375 4 1 C4 2.98 4 4.96 4 7 C2.35 7 0.7 7 -1 7 C-1.04254356 5.00045254 -1.04080783 2.99958364 -1 1 C-0.67 0.67 -0.34 0.34 0 0 Z " fill="#3B3B3B" transform="translate(418,536)"/>
<path d="M0 0 C0.33 0 0.66 0 1 0 C1.1953125 6.0546875 1.1953125 6.0546875 1 8 C-1 10 -1 10 -2.9453125 10.1953125 C-4.96354167 10.13020833 -6.98177083 10.06510417 -9 10 C-6 8 -6 8 -3 7 C-2.814375 5.824375 -2.814375 5.824375 -2.625 4.625 C-2 2 -2 2 0 0 Z " fill="#969696" transform="translate(348,544)"/>
<path d="M0 0 C-5.01372252 3.52913975 -8.83543922 5.61471495 -15 6 C-12.87748883 3.69895986 -10.84451444 2.18105541 -8.0625 0.75 C-7.39347656 0.39421875 -6.72445312 0.0384375 -6.03515625 -0.328125 C-3.61730731 -1.12634 -2.36988243 -0.82707306 0 0 Z " fill="#5A5A5A" transform="translate(238,124)"/>
<path d="M0 0 C2.31 0 4.62 0 7 0 C6.34 0.66 5.68 1.32 5 2 C4.3574765 4.06874034 4.3574765 4.06874034 4 6 C2.68 6 1.36 6 0 6 C0 4.02 0 2.04 0 0 Z " fill="#2E2E2E" transform="translate(248,546)"/>
<path d="M0 0 C2.475 0.495 2.475 0.495 5 1 C4.67 2.65 4.34 4.3 4 6 C2.68 6 1.36 6 0 6 C0 4.02 0 2.04 0 0 Z " fill="#474747" transform="translate(341,536)"/>
<path d="M0 0 C0.33 0.99 0.66 1.98 1 3 C-1.64 5.64 -4.28 8.28 -7 11 C-7.66 10.34 -8.32 9.68 -9 9 C-6.03 6.03 -3.06 3.06 0 0 Z " fill="#2E2E2E" transform="translate(445,281)"/>
<path d="M0 0 C0.94875 0.04125 1.8975 0.0825 2.875 0.125 C2.875 0.785 2.875 1.445 2.875 2.125 C1.225 2.125 -0.425 2.125 -2.125 2.125 C-2.125 4.105 -2.125 6.085 -2.125 8.125 C-3.115 8.455 -4.105 8.785 -5.125 9.125 C-5.25 5.75 -5.25 5.75 -5.125 2.125 C-3.125 0.125 -3.125 0.125 0 0 Z " fill="#969696" transform="translate(152.125,542.875)"/>
<path d="M0 0 C0 1.65 0 3.3 0 5 C-0.99 5 -1.98 5 -3 5 C-3 4.01 -3 3.02 -3 2 C-4.65 2 -6.3 2 -8 2 C-8 1.34 -8 0.68 -8 0 C-4.71023192 -1.09658936 -3.28696233 -0.79953138 0 0 Z " fill="#969696" transform="translate(438,535)"/>
<path d="M0 0 C0 1.65 0 3.3 0 5 C-0.66 5 -1.32 5 -2 5 C-2 4.01 -2 3.02 -2 2 C-2.61875 2.185625 -3.2375 2.37125 -3.875 2.5625 C-6 3 -6 3 -8 2 C-8 1.34 -8 0.68 -8 0 C-4.71023192 -1.09658936 -3.28696233 -0.79953138 0 0 Z " fill="#A0A0A0" transform="translate(171,535)"/>
<path d="M0 0 C1.32 0.33 2.64 0.66 4 1 C4 2.98 4 4.96 4 7 C2.02 7 0.04 7 -2 7 C-2 6.67 -2 6.34 -2 6 C-0.35 6 1.3 6 3 6 C3 4.68 3 3.36 3 2 C2.34 2 1.68 2 1 2 C0.67 2.99 0.34 3.98 0 5 C-0.99 4.67 -1.98 4.34 -3 4 C-2.34 4 -1.68 4 -1 4 C-0.67 2.68 -0.34 1.36 0 0 Z " fill="#484848" transform="translate(151,536)"/>
<path d="M0 0 C0.33 0 0.66 0 1 0 C1.09728523 5.44797276 1.01750284 10.634985 0 16 C-0.99 16.66 -1.98 17.32 -3 18 C-2.32418477 11.91766294 -1.26361972 5.98685848 0 0 Z " fill="#575757" transform="translate(499,217)"/>
<path d="M0 0 C1.99954746 -0.04254356 4.00041636 -0.04080783 6 0 C7 1 7 1 7.09765625 3.06640625 C7.08605469 3.89011719 7.07445312 4.71382812 7.0625 5.5625 C7.05347656 6.38878906 7.04445313 7.21507812 7.03515625 8.06640625 C7.01775391 9.02353516 7.01775391 9.02353516 7 10 C6.01 9.34 5.02 8.68 4 8 C3.66666667 6 3.33333333 4 3 2 C2.01 1.34 1.02 0.68 0 0 Z " fill="#939393" transform="translate(418,535)"/>
<path d="M0 0 C0.66 0.33 1.32 0.66 2 1 C0.88200014 2.33920838 -0.24461897 3.67122556 -1.375 5 C-2.00148438 5.7425 -2.62796875 6.485 -3.2734375 7.25 C-4.12808594 8.11625 -4.12808594 8.11625 -5 9 C-5.66 9 -6.32 9 -7 9 C-5.44499019 5.18315774 -2.96404505 2.80804268 0 0 Z " fill="#A8A8A8" transform="translate(485,455)"/>
<path d="M0 0 C0 0.66 0 1.32 0 2 C-1.75 3.2890625 -1.75 3.2890625 -4 4.625 C-4.7425 5.07101563 -5.485 5.51703125 -6.25 5.9765625 C-6.8275 6.31429687 -7.405 6.65203125 -8 7 C-8.66 6.34 -9.32 5.68 -10 5 C-8.71186658 4.16121545 -7.41936744 3.32913217 -6.125 2.5 C-5.40570313 2.0359375 -4.68640625 1.571875 -3.9453125 1.09375 C-2 0 -2 0 0 0 Z " fill="#505050" transform="translate(223,130)"/>
<path d="M0 0 C0.99 0 1.98 0 3 0 C2.125 4.875 2.125 4.875 1 6 C-0.99958364 6.04080783 -3.00045254 6.04254356 -5 6 C-4.34 5.34 -3.68 4.68 -3 4 C-2.01 4 -1.02 4 0 4 C0 2.68 0 1.36 0 0 Z " fill="#9D9D9D" transform="translate(267,548)"/>
<path d="M0 0 C0.66 0.33 1.32 0.66 2 1 C1.07161713 2.31896465 0.13194268 3.62998689 -0.8125 4.9375 C-1.59560547 6.03384766 -1.59560547 6.03384766 -2.39453125 7.15234375 C-4 9 -4 9 -7 10 C-5.6062718 5.56541027 -3.39417765 3.12621626 0 0 Z " fill="#555555" transform="translate(266,189)"/>
<path d="M0 0 C0.33 0 0.66 0 1 0 C1.33 1.65 1.66 3.3 2 5 C4.31 5.33 6.62 5.66 9 6 C5.77786243 8.14809171 4.72224599 8.29386153 1 8 C0 7 0 7 -0.0625 3.4375 C-0.041875 2.303125 -0.02125 1.16875 0 0 Z " fill="#ADADAD" transform="translate(148,546)"/>
<path d="M0 0 C0.33 0.99 0.66 1.98 1 3 C-0.2065625 4.0828125 -0.2065625 4.0828125 -1.4375 5.1875 C-4.02292072 8.02515689 -4.68042813 9.27166147 -5 13 C-5.33 13 -5.66 13 -6 13 C-6.46557346 9.81858133 -6.50963377 7.74656877 -4.6640625 5.04296875 C-3.15741976 3.3064392 -1.62063536 1.630282 0 0 Z " fill="#454545" transform="translate(214,196)"/>
<path d="M0 0 C0.66 0 1.32 0 2 0 C2 1.65 2 3.3 2 5 C-0.64 5 -3.28 5 -6 5 C-4 3 -4 3 -1 2 C-0.67 1.34 -0.34 0.68 0 0 Z " fill="#A0A0A0" transform="translate(227,549)"/>
<path d="M0 0 C0.33 0 0.66 0 1 0 C1 2.31 1 4.62 1 7 C-0.32 7.33 -1.64 7.66 -3 8 C-3 6.35 -3 4.7 -3 3 C-2.34 3 -1.68 3 -1 3 C-0.67 2.01 -0.34 1.02 0 0 Z " fill="#B6B6B6" transform="translate(454,546)"/>
<path d="M0 0 C0.99 0 1.98 0 3 0 C3 2.64 3 5.28 3 8 C2.01 7.67 1.02 7.34 0 7 C0 4.69 0 2.38 0 0 Z " fill="#222222" transform="translate(392,546)"/>
<path d="M0 0 C0 0.66 0 1.32 0 2 C-0.99 2 -1.98 2 -3 2 C-3.268125 2.639375 -3.53625 3.27875 -3.8125 3.9375 C-5 6 -5 6 -8 7 C-8.66 6.34 -9.32 5.68 -10 5 C-8.71186658 4.16121545 -7.41936744 3.32913217 -6.125 2.5 C-5.40570313 2.0359375 -4.68640625 1.571875 -3.9453125 1.09375 C-2 0 -2 0 0 0 Z " fill="#4C4C4C" transform="translate(378,279)"/>
<path d="M0 0 C0.99 0 1.98 0 3 0 C3 1.98 3 3.96 3 6 C2.01 6.33 1.02 6.66 0 7 C0 4.69 0 2.38 0 0 Z " fill="#979797" transform="translate(324,550)"/>
<path d="M0 0 C0.66 0 1.32 0 2 0 C2.04254356 1.99954746 2.04080783 4.00041636 2 6 C1 7 1 7 -1.5625 7.0625 C-2.7690625 7.0315625 -2.7690625 7.0315625 -4 7 C-2.68 6.34 -1.36 5.68 0 5 C0 3.35 0 1.7 0 0 Z " fill="#A8A8A8" transform="translate(409,547)"/>
<path d="M0 0 C0.99 0 1.98 0 3 0 C3 1.65 3 3.3 3 5 C1.68 5 0.36 5 -1 5 C-0.67 3.35 -0.34 1.7 0 0 Z " fill="#2B2B2B" transform="translate(249,538)"/>
<path d="M0 0 C0.66 1.32 1.32 2.64 2 4 C0.75 6.75 0.75 6.75 -1 9 C-1.66 9 -2.32 9 -3 9 C-2.01 6.03 -1.02 3.06 0 0 Z " fill="#4B4B4B" transform="translate(491,247)"/>
<path d="M0 0 C0.66 0 1.32 0 2 0 C1.125 3.875 1.125 3.875 0 5 C-1.99958364 5.04080783 -4.00045254 5.04254356 -6 5 C-4 3 -4 3 -1 2 C-0.67 1.34 -0.34 0.68 0 0 Z " fill="#AAAAAA" transform="translate(253,549)"/>
<path d="M0 0 C1.485 0.99 1.485 0.99 3 2 C2.6875 4.375 2.6875 4.375 2 7 C1.01 7.66 0.02 8.32 -1 9 C-0.67 6.03 -0.34 3.06 0 0 Z " fill="#808080" transform="translate(451,543)"/>
<path d="M0 0 C1.32 0 2.64 0 4 0 C3.67 0.99 3.34 1.98 3 3 C2.34 2.67 1.68 2.34 1 2 C1.33 3.32 1.66 4.64 2 6 C1.01 5.67 0.02 5.34 -1 5 C-0.67 3.35 -0.34 1.7 0 0 Z " fill="#525252" transform="translate(473,536)"/>
<path d="M0 0 C2.31 0 4.62 0 7 0 C7 0.99 7 1.98 7 3 C5.02 3 3.04 3 1 3 C0.67 2.01 0.34 1.02 0 0 Z " fill="#A1A1A1" transform="translate(494,534)"/>
</svg>
